<svg aria-hidden="true" style="position: absolute; width: 0; height: 0; overflow: hidden;" version="1.1" xmlns="http://www.w3.org/2000/svg" xmlns:xlink="http://www.w3.org/1999/xlink">
<defs>
<symbol id="icon-romance" viewBox="0 0 37 32">
<path fill="#fff" style="fill: var(--color1, #fff)" d="M5.54 31.709h-1.108l-0.741-1.93c-0.065-0.179-0.166-0.304-0.301-0.375s-0.312-0.106-0.529-0.106h-1.051v2.411h-1.043v-5.8h2.484c0.657 0 1.157 0.144 1.499 0.432s0.513 0.701 0.513 1.238c0 0.386-0.103 0.714-0.31 0.986-0.201 0.266-0.489 0.456-0.863 0.57 0.342 0.071 0.589 0.31 0.741 0.717l0.709 1.857zM3.104 28.483c0.396 0 0.69-0.073 0.88-0.22s0.285-0.369 0.285-0.668c0-0.293-0.095-0.51-0.285-0.652-0.185-0.147-0.478-0.22-0.88-0.22h-1.311v1.759h1.311zM8.278 31.774c-0.418 0-0.787-0.087-1.108-0.261-0.315-0.174-0.559-0.421-0.733-0.741-0.168-0.326-0.253-0.706-0.253-1.14s0.084-0.812 0.253-1.132c0.174-0.326 0.418-0.576 0.733-0.749 0.32-0.174 0.69-0.261 1.108-0.261 0.413 0 0.777 0.087 1.091 0.261s0.557 0.424 0.725 0.749c0.174 0.32 0.261 0.698 0.261 1.132s-0.087 0.815-0.261 1.14c-0.168 0.32-0.41 0.568-0.725 0.741s-0.679 0.261-1.091 0.261zM8.27 30.976c0.348 0 0.611-0.111 0.79-0.334 0.185-0.228 0.277-0.565 0.277-1.010 0-0.44-0.092-0.774-0.277-1.002-0.185-0.233-0.445-0.35-0.782-0.35-0.342 0-0.606 0.117-0.79 0.35-0.185 0.228-0.277 0.562-0.277 1.002 0 0.445 0.090 0.782 0.269 1.010 0.185 0.223 0.448 0.334 0.79 0.334zM16.088 27.49c0.467 0 0.815 0.141 1.043 0.424 0.228 0.277 0.342 0.701 0.342 1.271v2.525h-1.018v-2.492c0-0.326-0.054-0.559-0.163-0.701-0.103-0.147-0.277-0.22-0.521-0.22-0.282 0-0.505 0.1-0.668 0.301-0.157 0.195-0.236 0.467-0.236 0.815v2.297h-1.018v-2.492c0-0.32-0.057-0.554-0.171-0.701-0.109-0.147-0.282-0.22-0.521-0.22-0.282 0-0.505 0.1-0.668 0.301-0.163 0.195-0.244 0.467-0.244 0.815v2.297h-1.010v-2.949c0-0.434-0.022-0.823-0.065-1.165h0.953l0.073 0.652c0.119-0.244 0.291-0.432 0.513-0.562 0.228-0.13 0.489-0.195 0.782-0.195 0.63 0 1.040 0.261 1.23 0.782 0.13-0.244 0.315-0.434 0.554-0.57 0.244-0.141 0.516-0.212 0.815-0.212zM22.493 27.596v4.113h-1.002v-0.66c-0.125 0.228-0.304 0.407-0.538 0.538-0.233 0.125-0.5 0.187-0.798 0.187-0.358 0-0.676-0.087-0.953-0.261s-0.491-0.421-0.643-0.741c-0.152-0.32-0.228-0.692-0.228-1.116s0.076-0.798 0.228-1.124c0.157-0.331 0.375-0.586 0.652-0.766 0.277-0.185 0.592-0.277 0.945-0.277 0.299 0 0.565 0.065 0.798 0.195 0.233 0.125 0.413 0.301 0.538 0.529v-0.619h1.002zM20.432 30.976c0.337 0 0.597-0.117 0.782-0.35s0.277-0.562 0.277-0.986c0-0.434-0.092-0.768-0.277-1.002s-0.448-0.35-0.79-0.35c-0.337 0-0.6 0.122-0.79 0.367-0.185 0.239-0.277 0.573-0.277 1.002 0 0.424 0.092 0.749 0.277 0.977 0.19 0.228 0.456 0.342 0.798 0.342zM25.956 27.49c0.983 0 1.474 0.565 1.474 1.694v2.525h-1.018v-2.476c0-0.326-0.062-0.562-0.187-0.709-0.125-0.152-0.318-0.228-0.578-0.228-0.31 0-0.559 0.1-0.749 0.301-0.19 0.195-0.285 0.456-0.285 0.782v2.33h-1.010v-2.949c0-0.434-0.022-0.823-0.065-1.165h0.953l0.073 0.676c0.141-0.25 0.331-0.443 0.57-0.578 0.244-0.136 0.519-0.204 0.823-0.204zM30.376 31.774c-0.429 0-0.801-0.087-1.116-0.261s-0.557-0.418-0.725-0.733c-0.168-0.32-0.253-0.695-0.253-1.124s0.087-0.806 0.261-1.132c0.179-0.326 0.429-0.578 0.75-0.758 0.326-0.185 0.701-0.277 1.124-0.277 0.293 0 0.575 0.046 0.847 0.138 0.277 0.092 0.497 0.22 0.66 0.383l-0.285 0.717c-0.174-0.141-0.358-0.247-0.554-0.318-0.195-0.076-0.388-0.114-0.578-0.114-0.369 0-0.657 0.117-0.863 0.35-0.207 0.228-0.31 0.559-0.31 0.994s0.1 0.766 0.301 0.994c0.206 0.228 0.497 0.342 0.872 0.342 0.19 0 0.383-0.038 0.578-0.114s0.38-0.185 0.554-0.326l0.285 0.717c-0.174 0.163-0.399 0.291-0.676 0.383s-0.568 0.138-0.872 0.138zM36.207 29.705h-2.835c0.022 0.44 0.13 0.766 0.326 0.977 0.201 0.206 0.497 0.31 0.888 0.31 0.451 0 0.869-0.147 1.254-0.44l0.293 0.701c-0.196 0.157-0.437 0.285-0.725 0.383-0.282 0.092-0.57 0.138-0.863 0.138-0.673 0-1.203-0.19-1.588-0.57s-0.578-0.902-0.578-1.564c0-0.418 0.084-0.79 0.252-1.116s0.404-0.578 0.709-0.758c0.304-0.185 0.649-0.277 1.034-0.277 0.565 0 1.010 0.185 1.336 0.554 0.331 0.364 0.497 0.866 0.497 1.507v0.155zM34.399 28.223c-0.272 0-0.494 0.081-0.668 0.244-0.168 0.157-0.277 0.388-0.326 0.692h1.914c-0.033-0.31-0.128-0.543-0.285-0.701-0.152-0.157-0.364-0.236-0.635-0.236z"></path>
<path fill="#fff" style="fill: var(--color1, #fff)" d="M29.744 9.385c0-1.676-0.637-3.248-1.794-4.426-1.163-1.184-2.723-1.836-4.392-1.836-2.126 0-4.079 1.066-5.232 2.819-1.153-1.753-3.105-2.819-5.232-2.819-1.669 0-3.229 0.652-4.392 1.837-1.157 1.178-1.793 2.75-1.793 4.426 0 1.571 0.455 2.489 0.82 3.227l0.040 0.080c1.513 3.065 9.971 10.094 10.33 10.392l0.226 0.188 0.227-0.187c0.008-0.007 0.806-0.665 1.942-1.651 1.059 0.944 1.9 1.643 1.909 1.65l0.227 0.188 0.227-0.187c0.222-0.183 5.453-4.509 6.348-6.398l0.025-0.052c0.216-0.455 0.512-1.077 0.512-2.024 0-0.822-0.241-1.599-0.696-2.264 0.306-0.656 0.696-1.603 0.696-2.962zM28.589 16.329l-0.025 0.053c-0.729 1.538-4.906 5.103-5.931 5.964-0.351-0.296-1.073-0.912-1.895-1.651-1.245-1.119-2.243-2.095-2.948-2.875-0.196-0.217-0.369-0.418-0.519-0.604-0.060-0.074-0.116-0.146-0.168-0.215-0.183-0.242-0.318-0.451-0.404-0.624l-0.015-0.030c-0.208-0.421-0.444-0.897-0.444-1.736 0-1.823 1.404-3.252 3.197-3.252 1.212 0 2.316 0.667 2.88 1.741l0.315 0.6 0.315-0.6c0.564-1.074 1.668-1.741 2.88-1.741 0.998 0 1.919 0.453 2.527 1.243 0.443 0.576 0.678 1.271 0.678 2.009 0 0.786-0.235 1.281-0.443 1.718zM28.54 11.742c-0.001-0.001-0.003-0.003-0.005-0.004-0.039-0.038-0.079-0.075-0.12-0.111-0.007-0.006-0.014-0.013-0.021-0.019-0.041-0.036-0.082-0.071-0.125-0.105-0.008-0.007-0.017-0.013-0.025-0.020-0.043-0.034-0.087-0.068-0.132-0.1-0.004-0.003-0.008-0.005-0.012-0.008-0.043-0.031-0.087-0.061-0.131-0.090-0.007-0.005-0.014-0.009-0.020-0.014-0.045-0.030-0.092-0.058-0.138-0.085-0.009-0.005-0.018-0.011-0.028-0.016-0.047-0.027-0.095-0.054-0.143-0.079-0.006-0.003-0.012-0.006-0.017-0.009-0.047-0.024-0.094-0.047-0.142-0.070-0.006-0.003-0.012-0.006-0.018-0.009-0.049-0.023-0.099-0.044-0.15-0.065-0.010-0.004-0.020-0.008-0.030-0.012-0.050-0.020-0.101-0.039-0.152-0.057-0.007-0.003-0.015-0.005-0.022-0.008-0.050-0.017-0.1-0.034-0.151-0.049-0.005-0.002-0.010-0.003-0.015-0.005-0.053-0.016-0.106-0.030-0.159-0.043-0.010-0.003-0.021-0.005-0.031-0.008-0.053-0.013-0.106-0.024-0.159-0.035-0.009-0.002-0.018-0.003-0.027-0.005-0.053-0.010-0.107-0.019-0.161-0.027-0.003-0-0.006-0.001-0.009-0.001-0.056-0.008-0.111-0.015-0.168-0.020-0.011-0.001-0.021-0.002-0.032-0.003-0.055-0.005-0.11-0.009-0.165-0.012-0.010-0.001-0.020-0.001-0.030-0.001-0.058-0.002-0.115-0.004-0.173-0.004-1.277 0-2.455 0.607-3.195 1.617-0.74-1.010-1.918-1.617-3.195-1.617-0.198 0-0.394 0.014-0.586 0.043-0.832 0.124-1.595 0.511-2.192 1.12-0.729 0.745-1.131 1.739-1.131 2.8 0 1.005 0.287 1.586 0.517 2.052l0.015 0.030c0.014 0.028 0.028 0.056 0.044 0.084 0.005 0.009 0.010 0.019 0.016 0.028 0.011 0.020 0.022 0.039 0.033 0.060 0.007 0.012 0.014 0.024 0.021 0.035 0.011 0.019 0.022 0.037 0.033 0.056 0.008 0.013 0.017 0.026 0.025 0.040 0.011 0.018 0.023 0.036 0.035 0.055 0.009 0.014 0.019 0.029 0.028 0.043 0.012 0.018 0.024 0.037 0.037 0.055 0.010 0.015 0.021 0.030 0.031 0.045 0.013 0.019 0.026 0.037 0.039 0.056 0.011 0.016 0.023 0.032 0.034 0.048 0.014 0.019 0.028 0.038 0.042 0.058 0.012 0.016 0.025 0.033 0.037 0.050 0.015 0.019 0.029 0.039 0.044 0.059 0.013 0.017 0.027 0.035 0.040 0.052 0.015 0.020 0.031 0.040 0.047 0.060 0.014 0.018 0.029 0.036 0.043 0.054 0.016 0.020 0.032 0.041 0.049 0.061 0.015 0.019 0.030 0.037 0.046 0.056 0.017 0.021 0.034 0.042 0.052 0.063 0.016 0.019 0.032 0.038 0.048 0.058 0.018 0.021 0.036 0.043 0.055 0.065 0.017 0.020 0.034 0.040 0.051 0.059 0.019 0.022 0.038 0.044 0.057 0.066 0.018 0.020 0.036 0.041 0.054 0.062 0.020 0.022 0.040 0.045 0.060 0.068 0.019 0.021 0.037 0.042 0.056 0.063 0.021 0.023 0.042 0.046 0.063 0.070 0.020 0.022 0.039 0.043 0.059 0.065 0.021 0.023 0.043 0.047 0.065 0.071 0.020 0.022 0.041 0.044 0.062 0.067 0.022 0.024 0.045 0.048 0.068 0.072 0.021 0.023 0.043 0.046 0.065 0.069 0.023 0.024 0.047 0.049 0.070 0.074s0.045 0.047 0.068 0.071c0.024 0.025 0.048 0.050 0.073 0.075 0.023 0.024 0.046 0.048 0.070 0.072 0.025 0.026 0.051 0.052 0.077 0.078 0.024 0.024 0.047 0.048 0.071 0.073 0.027 0.027 0.055 0.055 0.082 0.083 0.024 0.024 0.047 0.047 0.071 0.072 0.029 0.029 0.058 0.058 0.088 0.087 0.047 0.047 0.094 0.093 0.142 0.141 0.030 0.029 0.059 0.059 0.090 0.088 0.027 0.026 0.055 0.053 0.082 0.080 0.029 0.028 0.057 0.056 0.087 0.084s0.058 0.056 0.088 0.085c0.029 0.028 0.057 0.055 0.086 0.083s0.061 0.058 0.091 0.087c0.029 0.028 0.059 0.056 0.089 0.084s0.062 0.058 0.093 0.087c0.031 0.029 0.061 0.058 0.093 0.087s0.064 0.060 0.096 0.090c0.031 0.029 0.062 0.058 0.094 0.087 0.033 0.031 0.067 0.062 0.101 0.094 0.031 0.029 0.063 0.058 0.094 0.087 0.034 0.031 0.069 0.063 0.103 0.095 0.032 0.030 0.065 0.060 0.098 0.090 0.035 0.032 0.070 0.064 0.105 0.096 0.021 0.019 0.042 0.038 0.063 0.057-0.742 0.643-1.331 1.138-1.635 1.393-1.378-1.158-8.606-7.308-9.92-9.969l-0.040-0.081c-0.35-0.706-0.746-1.507-0.746-2.912 0-3.112 2.404-5.551 5.474-5.551 2.069 0 3.953 1.139 4.916 2.973l0.315 0.6 0.315-0.6c0.964-1.833 2.847-2.973 4.916-2.973 3.069 0 5.474 2.438 5.474 5.551-0 1.023-0.243 1.775-0.493 2.357z"></path>
<path fill="#fff" style="fill: var(--color1, #fff)" d="M13.415 0h-0.712v2.216h0.712v-2.216z"></path>
<path fill="#fff" style="fill: var(--color1, #fff)" d="M16.134 0.646l-0.93 2.011 0.646 0.299 0.93-2.011-0.646-0.299z"></path>
<path fill="#fff" style="fill: var(--color1, #fff)" d="M9.984 0.646l-0.646 0.299 0.93 2.011 0.646-0.299-0.93-2.011z"></path>
<path fill="#fff" style="fill: var(--color1, #fff)" d="M9.141 9.774c0-0.033 0-0.067 0.001-0.1l-0.712-0.015c-0.001 0.038-0.001 0.077-0.001 0.115 0 0.477 0.049 0.912 0.148 1.33l0.692-0.166c-0.087-0.363-0.129-0.743-0.129-1.164z"></path>
<path fill="#fff" style="fill: var(--color1, #fff)" d="M10.106 5.861c-0.853 0.801-1.424 1.885-1.609 3.051l0.703 0.111c0.16-1.011 0.655-1.95 1.393-2.644l-0.488-0.519z"></path>
<path fill="#fff" style="fill: var(--color1, #fff)" d="M18.53 12.129c-0.979 0.454-1.619 1.417-1.67 2.515l0.711 0.033c0.039-0.831 0.521-1.56 1.259-1.902l-0.299-0.646z"></path>
</symbol>
<symbol id="icon-history" viewBox="0 0 32 32">
<path fill="#fff" style="fill: var(--color1, #fff)" d="M20.691 27.666c0.404-0.437 0.577-0.973 0.577-1.566 0-0.594-0.17-1.134-0.577-1.571-0.397-0.426-0.898-0.623-1.475-0.623-0.579 0-1.086 0.191-1.486 0.616-0.409 0.435-0.577 0.973-0.577 1.568 0 0.598 0.168 1.143 0.579 1.582 0.398 0.426 0.9 0.623 1.479 0.623 0.581 0 1.084-0.198 1.481-0.628zM18.562 26.96c-0.193-0.246-0.251-0.559-0.251-0.865 0-0.304 0.064-0.605 0.259-0.844 0.166-0.205 0.377-0.308 0.641-0.308 0.266 0 0.482 0.097 0.646 0.308 0.193 0.244 0.253 0.55 0.253 0.855s-0.064 0.609-0.255 0.851c-0.167 0.21-0.379 0.312-0.645 0.312-0.267 0-0.482-0.097-0.648-0.308z"></path>
<path fill="#fff" style="fill: var(--color1, #fff)" d="M16.534 23.977h-2.079c-0.142 0-0.266 0.055-0.363 0.157-0.096 0.101-0.147 0.223-0.147 0.363 0 0.147 0.051 0.274 0.156 0.377 0.097 0.092 0.214 0.147 0.349 0.147h0.485v2.683c0 0.154 0.057 0.288 0.165 0.396l0.002 0.004 0.003 0.002c0.113 0.101 0.248 0.163 0.4 0.163 0.15 0 0.281-0.060 0.386-0.168 0.106-0.11 0.163-0.242 0.163-0.396v-2.677h0.48c0.14 0 0.264-0.051 0.363-0.152s0.152-0.225 0.152-0.366c0-0.143-0.051-0.271-0.151-0.373s-0.223-0.157-0.365-0.157z"></path>
<path fill="#fff" style="fill: var(--color1, #fff)" d="M12.507 27.107c-0.090 0.069-0.2 0.094-0.313 0.094-0.175 0-0.379-0.062-0.542-0.122-0.115-0.041-0.31-0.111-0.43-0.111-0.142 0-0.266 0.053-0.36 0.159-0.097 0.108-0.14 0.239-0.14 0.382v0.028c0 0.272 0.214 0.444 0.439 0.552 0.305 0.145 0.655 0.189 0.988 0.189 0.432 0 0.852-0.105 1.183-0.398 0.31-0.276 0.455-0.63 0.455-1.046 0-0.439-0.17-0.796-0.546-1.026-0.232-0.149-0.549-0.248-0.813-0.324-0.106-0.028-0.212-0.060-0.315-0.099-0.035-0.012-0.103-0.037-0.135-0.060-0.033-0.028-0.073-0.067-0.073-0.115 0-0.067 0.034-0.113 0.085-0.152 0.074-0.055 0.161-0.076 0.251-0.076 0.087 0 0.198 0.028 0.281 0.052l0.158 0.055c0.097 0.032 0.227 0.073 0.329 0.073 0.144 0 0.266-0.057 0.361-0.163 0.096-0.104 0.144-0.232 0.144-0.374 0-0.246-0.168-0.414-0.372-0.525-0.253-0.136-0.545-0.182-0.829-0.182-0.416 0-0.804 0.11-1.125 0.382-0.301 0.26-0.453 0.595-0.453 0.994 0 0.38 0.14 0.697 0.46 0.906 0.096 0.064 0.213 0.113 0.321 0.156 0.158 0.060 0.321 0.111 0.484 0.159 0.15 0.044 0.328 0.095 0.471 0.161 0.039 0.018 0.092 0.048 0.115 0.087 0.021 0.039 0.030 0.085 0.030 0.129 0 0.092-0.037 0.159-0.112 0.216z"></path>
<path fill="#fff" style="fill: var(--color1, #fff)" d="M26.717 28.101c0.11 0.106 0.241 0.166 0.393 0.166 0.156 0 0.292-0.060 0.398-0.175 0.104-0.112 0.161-0.246 0.161-0.4v-1.433l1.040-1.423c0.074-0.101 0.11-0.216 0.11-0.34 0-0.156-0.060-0.29-0.173-0.396-0.108-0.104-0.241-0.163-0.392-0.163-0.193 0-0.349 0.085-0.457 0.244l-0.687 0.986-0.682-0.986c-0.106-0.161-0.264-0.244-0.457-0.244-0.158 0-0.299 0.055-0.411 0.168-0.106 0.106-0.167 0.239-0.167 0.391 0 0.126 0.048 0.241 0.122 0.34l1.029 1.423v1.433c0 0.159 0.057 0.299 0.172 0.409z"></path>
<path fill="#fff" style="fill: var(--color1, #fff)" d="M25.033 25.343c0-0.389-0.136-0.724-0.428-0.984-0.297-0.265-0.664-0.375-1.061-0.375h-1.027c-0.158 0-0.296 0.055-0.406 0.166-0.113 0.113-0.166 0.255-0.166 0.414v3.128c0 0.157 0.055 0.296 0.166 0.407l0.002 0.004 0.002 0.002c0.115 0.101 0.248 0.163 0.402 0.163 0.151 0 0.285-0.053 0.393-0.161 0.108-0.11 0.161-0.244 0.161-0.398v-0.904l1.001 1.231c0.113 0.14 0.259 0.232 0.441 0.232 0.152 0 0.289-0.055 0.402-0.159l0.003-0.002 0.002-0.003c0.103-0.113 0.163-0.246 0.163-0.4 0-0.14-0.051-0.262-0.145-0.366l-0.754-0.83c0.127-0.035 0.257-0.083 0.358-0.152 0.347-0.239 0.492-0.596 0.492-1.012zM23.806 25.61c-0.073 0.069-0.156 0.105-0.257 0.105h-0.473v-0.681h0.462c0.101 0 0.191 0.026 0.264 0.101l0.002 0.002 0.004 0.002c0.069 0.062 0.106 0.135 0.106 0.228 0 0.097-0.037 0.175-0.108 0.244z"></path>
<path fill="#fff" style="fill: var(--color1, #fff)" d="M7.174 28.108c0.108 0.11 0.242 0.165 0.396 0.165 0.156 0 0.291-0.058 0.399-0.172 0.104-0.11 0.161-0.241 0.161-0.393v-3.201c0-0.157-0.055-0.295-0.165-0.409-0.108-0.108-0.241-0.166-0.395-0.166s-0.287 0.065-0.393 0.177c-0.104 0.112-0.167 0.244-0.167 0.398v1.023h-1.468v-1.023c0-0.156-0.055-0.292-0.161-0.403s-0.239-0.172-0.393-0.172c-0.156 0-0.291 0.064-0.399 0.177-0.106 0.112-0.167 0.244-0.167 0.398v3.201c0 0.156 0.055 0.292 0.167 0.402 0.11 0.108 0.244 0.163 0.399 0.163s0.289-0.055 0.395-0.165c0.108-0.11 0.159-0.246 0.159-0.4v-1.134h1.468v1.134c0 0.156 0.055 0.29 0.163 0.4z"></path>
<path fill="#fff" style="fill: var(--color1, #fff)" d="M9.090 24.109c-0.104 0.112-0.167 0.244-0.167 0.398v3.196c0 0.154 0.055 0.29 0.163 0.4s0.244 0.165 0.397 0.165c0.154 0 0.289-0.055 0.397-0.165 0.108-0.108 0.163-0.241 0.163-0.395v-3.201c0-0.156-0.053-0.292-0.161-0.404-0.106-0.111-0.239-0.172-0.393-0.172-0.156 0-0.29 0.064-0.398 0.177z"></path>
<path fill="#fff" style="fill: var(--color1, #fff)" d="M31.37 9.983h-23.457l23.030-4.452c0.164-0.032 0.309-0.127 0.403-0.266s0.128-0.309 0.096-0.473l-0.696-3.594c-0.066-0.342-0.397-0.565-0.739-0.499l-6.6 1.276c-0.014 0.002-0.028 0.005-0.041 0.008l-19.95 3.856c-0.002 0-0.004 0.001-0.006 0.001l-2.899 0.56c-0.164 0.032-0.309 0.127-0.403 0.266s-0.128 0.309-0.097 0.473l0.685 3.534v20.009c0 0.348 0.282 0.63 0.63 0.63h12.034c0.348 0 0.63-0.282 0.63-0.63s-0.282-0.63-0.63-0.63h-11.404v-15.148h28.783v15.148h-11.705c-0.348 0-0.63 0.282-0.63 0.63s0.282 0.63 0.63 0.63h12.335c0.348 0 0.63-0.282 0.63-0.63v-20.070c0-0.348-0.282-0.63-0.63-0.63zM21.268 13.644l1.802-2.401h3.506l-1.802 2.401h-3.506zM16.185 13.644l1.801-2.401h3.508l-1.802 2.401h-3.507zM11.101 13.644l1.802-2.401h3.507l-1.801 2.401h-3.508zM6.018 13.644l1.802-2.401h3.507l-1.802 2.401h-3.507zM1.957 10.613c0-0.355 0.289-0.644 0.645-0.644s0.645 0.289 0.645 0.644c0 0.355-0.289 0.644-0.645 0.644s-0.645-0.289-0.645-0.644zM8.379 6.164l2.521 1.958-3.347 0.647-2.52-1.958 3.345-0.647zM13.369 5.199l2.521 1.958-3.345 0.647-2.521-1.958 3.345-0.646zM18.36 4.234l2.52 1.958-3.345 0.646-2.52-1.958 3.345-0.647zM23.352 3.27l2.519 1.958-3.345 0.647-2.52-1.958 3.347-0.647zM30.084 4.413l-2.568 0.496-2.519-1.958 4.631-0.895 0.456 2.356zM3.388 7.128l2.52 1.958-1.81 0.35c-0.349-0.443-0.89-0.728-1.496-0.728-0.347 0-0.672 0.094-0.952 0.256l-0.28-1.446 2.019-0.39zM1.957 12.405c0.202 0.073 0.419 0.113 0.645 0.113 0.83 0 1.537-0.533 1.798-1.274h1.845l-1.802 2.401h-2.485v-1.239zM26.351 13.644l1.802-2.401h2.586v2.401h-4.388z"></path>
<path fill="#fff" style="fill: var(--color1, #fff)" d="M28.196 21.616c0.348 0 0.63-0.282 0.63-0.63v-2.578c0-0.348-0.282-0.63-0.63-0.63h-24.050c-0.348 0-0.63 0.282-0.63 0.63v2.578c0 0.348 0.282 0.63 0.63 0.63h24.050zM27.566 20.356h-7.012v-1.318h7.012v1.318zM19.293 20.356h-7.286v-1.318h7.286v1.318zM4.776 19.038h5.97v1.318h-5.97v-1.318z"></path>
<path fill="#fff" style="fill: var(--color1, #fff)" d="M16.22 30.053h-0.010c-0.348 0-0.63 0.282-0.63 0.63s0.282 0.63 0.63 0.63h0.010c0.348 0 0.63-0.282 0.63-0.63s-0.282-0.63-0.63-0.63z"></path>
</symbol>
<symbol id="icon-horror" viewBox="0 0 26 32">
<path fill="#fff" style="fill: var(--color1, #fff)" d="M5.758 25.91v5.8h-1.043v-2.517h-2.973v2.517h-1.034v-5.8h1.034v2.427h2.973v-2.427h1.043zM8.808 31.774c-0.418 0-0.787-0.087-1.108-0.261-0.315-0.174-0.559-0.421-0.733-0.741-0.168-0.326-0.253-0.706-0.253-1.14s0.084-0.812 0.253-1.132c0.174-0.326 0.418-0.576 0.733-0.749 0.32-0.174 0.69-0.261 1.108-0.261 0.413 0 0.777 0.087 1.091 0.261s0.557 0.424 0.725 0.749c0.174 0.32 0.261 0.698 0.261 1.132s-0.087 0.815-0.261 1.14c-0.168 0.32-0.41 0.568-0.725 0.741s-0.679 0.261-1.091 0.261zM8.8 30.976c0.348 0 0.611-0.111 0.79-0.334 0.185-0.228 0.277-0.565 0.277-1.010 0-0.44-0.092-0.774-0.277-1.002-0.185-0.233-0.445-0.35-0.782-0.35-0.342 0-0.605 0.117-0.79 0.35-0.185 0.228-0.277 0.562-0.277 1.002 0 0.445 0.090 0.782 0.269 1.010 0.185 0.223 0.448 0.334 0.79 0.334zM13.979 27.498c0.157 0 0.293 0.022 0.407 0.065l-0.008 0.929c-0.174-0.071-0.353-0.106-0.538-0.106-0.348 0-0.614 0.1-0.798 0.301-0.179 0.201-0.269 0.467-0.269 0.798v2.224h-1.010v-2.949c0-0.434-0.022-0.823-0.065-1.165h0.953l0.081 0.725c0.103-0.266 0.266-0.47 0.489-0.611s0.475-0.212 0.758-0.212zM17.168 27.498c0.157 0 0.293 0.022 0.407 0.065l-0.008 0.929c-0.174-0.071-0.353-0.106-0.538-0.106-0.348 0-0.614 0.1-0.798 0.301-0.179 0.201-0.269 0.467-0.269 0.798v2.224h-1.010v-2.949c0-0.434-0.022-0.823-0.065-1.165h0.953l0.081 0.725c0.103-0.266 0.266-0.47 0.489-0.611s0.475-0.212 0.758-0.212zM19.928 31.774c-0.418 0-0.787-0.087-1.108-0.261-0.315-0.174-0.559-0.421-0.733-0.741-0.168-0.326-0.253-0.706-0.253-1.14s0.084-0.812 0.253-1.132c0.174-0.326 0.418-0.576 0.733-0.749 0.32-0.174 0.69-0.261 1.108-0.261 0.413 0 0.777 0.087 1.091 0.261s0.557 0.424 0.725 0.749c0.174 0.32 0.261 0.698 0.261 1.132s-0.087 0.815-0.261 1.14c-0.168 0.32-0.41 0.568-0.725 0.741s-0.679 0.261-1.091 0.261zM19.92 30.976c0.348 0 0.611-0.111 0.79-0.334 0.185-0.228 0.277-0.565 0.277-1.010 0-0.44-0.092-0.774-0.277-1.002-0.185-0.233-0.445-0.35-0.782-0.35-0.342 0-0.605 0.117-0.79 0.35-0.185 0.228-0.277 0.562-0.277 1.002 0 0.445 0.090 0.782 0.269 1.010 0.185 0.223 0.448 0.334 0.79 0.334zM25.099 27.498c0.157 0 0.293 0.022 0.407 0.065l-0.008 0.929c-0.174-0.071-0.353-0.106-0.538-0.106-0.348 0-0.614 0.1-0.798 0.301-0.179 0.201-0.269 0.467-0.269 0.798v2.224h-1.010v-2.949c0-0.434-0.022-0.823-0.065-1.165h0.953l0.081 0.725c0.103-0.266 0.266-0.47 0.489-0.611s0.475-0.212 0.758-0.212z"></path>
<path fill="#fff" style="fill: var(--color1, #fff)" d="M23.831 7.304c-0.069-0.164-0.171-0.311-0.3-0.434s-0.282-0.216-0.449-0.276c-0.167-0.060-0.345-0.085-0.522-0.072s-0.35 0.061-0.507 0.144c-0.599 0.314-1.174 0.67-1.721 1.067 0-0.067 0-0.134 0-0.202 0-1.997-0.793-3.913-2.206-5.325s-3.328-2.206-5.325-2.206c-1.997 0-3.913 0.793-5.325 2.206s-2.206 3.328-2.206 5.325v0.202c-0.547-0.396-1.122-0.753-1.721-1.067-0.283-0.15-0.613-0.189-0.923-0.109s-0.58 0.274-0.754 0.544c-0.175 0.269-0.242 0.594-0.189 0.91s0.223 0.601 0.476 0.799c1.079 0.881 2.035 1.904 2.84 3.041-0.155 1.246-0.378 2.483-0.667 3.706l-1.011 4.114c-0.010 0.042-0.012 0.086-0.005 0.129s0.023 0.084 0.047 0.121c0.024 0.037 0.055 0.068 0.091 0.092s0.077 0.040 0.12 0.048l1.189 0.207c0.211 0.037 0.412 0.119 0.589 0.24s0.325 0.279 0.436 0.462l0.145 0.24c0.211 0.348 0.516 0.629 0.881 0.81s0.774 0.253 1.178 0.21l0.28-0.031c0.212-0.023 0.427-0 0.63 0.066s0.389 0.176 0.546 0.32l0.187 0.172c0.306 0.281 0.687 0.467 1.097 0.535s0.831 0.014 1.211-0.154l0.249-0.111c0.191-0.084 0.397-0.128 0.606-0.128s0.415 0.043 0.606 0.128l0.249 0.111c0.38 0.169 0.801 0.222 1.211 0.155s0.791-0.254 1.097-0.535l0.187-0.172c0.157-0.144 0.343-0.253 0.546-0.32s0.417-0.089 0.63-0.066l0.28 0.031c0.405 0.044 0.814-0.029 1.178-0.209s0.67-0.462 0.881-0.81l0.145-0.24c0.111-0.184 0.259-0.341 0.436-0.462s0.377-0.203 0.589-0.24l1.189-0.207c0.043-0.007 0.084-0.024 0.12-0.048s0.068-0.055 0.091-0.092c0.024-0.037 0.040-0.078 0.047-0.121s0.006-0.087-0.005-0.129l-1.010-4.111c-0.289-1.223-0.512-2.462-0.667-3.709 0.806-1.137 1.761-2.159 2.84-3.041 0.221-0.173 0.379-0.415 0.449-0.687s0.049-0.56-0.061-0.818zM23.052 8.307c-1.165 0.95-2.191 2.058-3.048 3.293-0.041 0.063-0.058 0.137-0.049 0.211 0.159 1.311 0.391 2.612 0.695 3.897l0.929 3.782-0.855 0.149c-0.301 0.052-0.587 0.169-0.839 0.341s-0.464 0.397-0.621 0.659l-0.145 0.24c-0.148 0.244-0.362 0.441-0.618 0.568s-0.543 0.178-0.827 0.147l-0.281-0.031c-0.302-0.033-0.608-0.001-0.897 0.094s-0.554 0.251-0.778 0.457l-0.187 0.172c-0.214 0.198-0.482 0.328-0.77 0.376s-0.583 0.010-0.85-0.108l-0.249-0.111c-0.272-0.12-0.566-0.183-0.864-0.183s-0.592 0.062-0.864 0.183l-0.249 0.111c-0.267 0.118-0.562 0.156-0.85 0.108s-0.555-0.178-0.77-0.375l-0.187-0.172c-0.224-0.206-0.489-0.362-0.778-0.457s-0.595-0.127-0.897-0.094l-0.281 0.031c-0.284 0.030-0.571-0.021-0.826-0.147s-0.47-0.324-0.618-0.568l-0.145-0.24c-0.158-0.262-0.369-0.486-0.621-0.659s-0.538-0.289-0.839-0.341l-0.855-0.149 0.93-3.785c0.303-1.284 0.535-2.584 0.694-3.894 0.009-0.074-0.008-0.149-0.049-0.211-0.856-1.234-1.881-2.343-3.046-3.292-0.126-0.1-0.21-0.244-0.236-0.403s0.009-0.322 0.097-0.456c0.088-0.135 0.223-0.232 0.379-0.272s0.321-0.021 0.464 0.053c0.752 0.391 1.462 0.856 2.121 1.389 0.046 0.038 0.102 0.062 0.161 0.070s0.119-0.001 0.174-0.026c0.054-0.025 0.101-0.064 0.134-0.114s0.051-0.108 0.053-0.167c0.007-0.283 0.012-0.567 0.012-0.851 0-1.828 0.726-3.582 2.019-4.875s3.046-2.019 4.875-2.019c1.828 0 3.582 0.726 4.875 2.019s2.019 3.046 2.019 4.875c0 0.284 0.005 0.567 0.012 0.851 0.001 0.060 0.020 0.118 0.053 0.168s0.079 0.089 0.134 0.114c0.054 0.025 0.115 0.034 0.174 0.026s0.115-0.032 0.161-0.070c0.659-0.533 1.369-0.999 2.121-1.39 0.079-0.042 0.166-0.066 0.256-0.073s0.179 0.006 0.263 0.036c0.084 0.030 0.161 0.078 0.226 0.139s0.116 0.136 0.151 0.219c0.055 0.13 0.067 0.274 0.032 0.41s-0.114 0.258-0.224 0.345z"></path>
<path fill="#fff" style="fill: var(--color1, #fff)" d="M10.448 4.023c-0.733 0-1.329 0.729-1.329 1.625s0.596 1.625 1.329 1.625c0.733 0 1.33-0.729 1.33-1.625s-0.595-1.625-1.33-1.625zM10.448 6.636c-0.376 0-0.693-0.453-0.693-0.989s0.318-0.989 0.693-0.989c0.375 0 0.693 0.453 0.693 0.989s-0.317 0.989-0.693 0.989z"></path>
<path fill="#fff" style="fill: var(--color1, #fff)" d="M15.152 4.023c-0.733 0-1.329 0.729-1.329 1.625s0.596 1.625 1.329 1.625c0.733 0 1.33-0.729 1.33-1.625s-0.596-1.625-1.33-1.625zM15.152 6.636c-0.376 0-0.693-0.453-0.693-0.989s0.317-0.989 0.693-0.989c0.376 0 0.693 0.453 0.693 0.989s-0.318 0.989-0.693 0.989z"></path>
<path fill="#fff" style="fill: var(--color1, #fff)" d="M12.8 7.068c-0.771 0-1.375 0.923-1.375 2.102s0.604 2.102 1.375 2.102c0.771 0 1.375-0.923 1.375-2.102s-0.604-2.102-1.375-2.102zM12.8 10.636c-0.349 0-0.739-0.627-0.739-1.466s0.39-1.466 0.739-1.466c0.349 0 0.739 0.627 0.739 1.466s-0.39 1.466-0.739 1.466z"></path>
</symbol>
<symbol id="icon-drama" viewBox="0 0 27 32">
<path fill="#fff" style="fill: var(--color1, #fff)" d="M0.645 25.91h2.134c0.95 0 1.686 0.253 2.207 0.758 0.527 0.505 0.79 1.216 0.79 2.134 0 0.923-0.263 1.64-0.79 2.15-0.521 0.505-1.257 0.758-2.207 0.758h-2.134v-5.8zM2.714 30.854c1.336 0 2.004-0.684 2.004-2.053 0-1.358-0.668-2.036-2.004-2.036h-1.018v4.089h1.018zM8.992 27.498c0.158 0 0.293 0.022 0.407 0.065l-0.008 0.929c-0.174-0.071-0.353-0.106-0.538-0.106-0.348 0-0.614 0.1-0.798 0.301-0.179 0.201-0.269 0.467-0.269 0.798v2.224h-1.010v-2.949c0-0.434-0.022-0.823-0.065-1.165h0.953l0.081 0.725c0.103-0.266 0.266-0.47 0.489-0.611s0.475-0.212 0.758-0.212zM13.821 27.596v4.113h-1.002v-0.66c-0.125 0.228-0.304 0.407-0.538 0.538-0.233 0.125-0.5 0.187-0.798 0.187-0.358 0-0.676-0.087-0.953-0.261s-0.491-0.421-0.643-0.741c-0.152-0.32-0.228-0.692-0.228-1.116s0.076-0.798 0.228-1.124c0.158-0.331 0.375-0.586 0.652-0.766 0.277-0.185 0.592-0.277 0.945-0.277 0.299 0 0.565 0.065 0.798 0.195 0.233 0.125 0.413 0.301 0.538 0.529v-0.619h1.002zM11.76 30.976c0.337 0 0.597-0.117 0.782-0.35s0.277-0.562 0.277-0.986c0-0.434-0.092-0.768-0.277-1.002s-0.448-0.35-0.79-0.35c-0.337 0-0.6 0.122-0.79 0.367-0.185 0.239-0.277 0.573-0.277 1.002 0 0.424 0.092 0.749 0.277 0.977 0.19 0.228 0.456 0.342 0.798 0.342zM19.785 27.49c0.467 0 0.815 0.141 1.043 0.424 0.228 0.277 0.342 0.701 0.342 1.271v2.525h-1.018v-2.492c0-0.326-0.054-0.559-0.163-0.701-0.103-0.147-0.277-0.22-0.521-0.22-0.282 0-0.505 0.1-0.668 0.301-0.157 0.195-0.236 0.467-0.236 0.815v2.297h-1.018v-2.492c0-0.32-0.057-0.554-0.171-0.701-0.109-0.147-0.282-0.22-0.521-0.22-0.282 0-0.505 0.1-0.668 0.301-0.163 0.195-0.244 0.467-0.244 0.815v2.297h-1.010v-2.949c0-0.434-0.022-0.823-0.065-1.165h0.953l0.073 0.652c0.119-0.244 0.291-0.432 0.513-0.562 0.228-0.13 0.489-0.195 0.782-0.195 0.63 0 1.040 0.261 1.23 0.782 0.13-0.244 0.315-0.434 0.554-0.57 0.244-0.141 0.516-0.212 0.815-0.212zM26.19 27.596v4.113h-1.002v-0.66c-0.125 0.228-0.304 0.407-0.538 0.538-0.233 0.125-0.5 0.187-0.798 0.187-0.358 0-0.676-0.087-0.953-0.261s-0.491-0.421-0.643-0.741c-0.152-0.32-0.228-0.692-0.228-1.116s0.076-0.798 0.228-1.124c0.157-0.331 0.375-0.586 0.652-0.766 0.277-0.185 0.592-0.277 0.945-0.277 0.299 0 0.565 0.065 0.798 0.195 0.233 0.125 0.413 0.301 0.538 0.529v-0.619h1.002zM24.13 30.976c0.337 0 0.597-0.117 0.782-0.35s0.277-0.562 0.277-0.986c0-0.434-0.092-0.768-0.277-1.002s-0.448-0.35-0.79-0.35c-0.337 0-0.6 0.122-0.79 0.367-0.185 0.239-0.277 0.573-0.277 1.002 0 0.424 0.092 0.749 0.277 0.977 0.19 0.228 0.456 0.342 0.798 0.342z"></path>
<path fill="#fff" style="fill: var(--color1, #fff)" d="M23.543 0.91l-0.375-0.093c-4.158-1.035-8.506-1.035-12.663 0l-0.375 0.093c-0.868 0.216-1.477 0.996-1.476 1.89v2.713c-1.937 0.549-3.804 1.319-5.565 2.295l-0.34 0.187c-0.782 0.432-1.169 1.343-0.935 2.206l1.134 4.24c1.022 3.805 3.835 6.873 7.538 8.221l1.169 0.429c1.387 0.499 2.937 0.082 3.887-1.044l0.798-0.953c0.743-0.884 1.353-1.872 1.81-2.932 0.246-0.095 0.48-0.219 0.698-0.367l1.019-0.713c3.228-2.262 5.15-5.955 5.152-9.896v-4.386c0.001-0.894-0.608-1.674-1.476-1.89zM15.742 20.594l-0.798 0.954c-0.739 0.876-1.945 1.2-3.024 0.812l-1.169-0.428c-3.464-1.261-6.095-4.131-7.052-7.691l-1.134-4.24c-0.14-0.517 0.091-1.063 0.56-1.322l0.34-0.187c1.644-0.912 3.384-1.638 5.188-2.166v0.862c0.003 3.49 1.514 6.809 4.145 9.102-0.685 0.279-1.409 0.452-2.146 0.515l-2.93 0.238c-0.177 0.014-0.323 0.146-0.353 0.322s0.062 0.349 0.224 0.422l3.884 1.753c0.846 0.383 1.845 0.116 2.387-0.638l0.85-1.182 0.111 0.078c0.59 0.412 1.292 0.632 2.011 0.631 0.117 0 0.23-0.015 0.345-0.026-0.391 0.785-0.874 1.521-1.439 2.192zM13.485 16.844c0.106 0.078 0.21 0.162 0.319 0.238l0.27 0.189-0.845 1.175c-0.325 0.452-0.925 0.612-1.432 0.382l-2.508-1.13 1.425-0.117c0.96-0.081 1.898-0.33 2.77-0.738zM24.239 7.187c-0.002 3.687-1.8 7.141-4.819 9.257l-1.019 0.713c-0.94 0.655-2.189 0.655-3.129 0l-1.019-0.713c-3.020-2.116-4.818-5.57-4.82-9.257v-4.386c0-0.536 0.365-1.004 0.885-1.134l0.375-0.094c4.034-1.005 8.252-1.005 12.285 0l0.375 0.094c0.52 0.13 0.885 0.598 0.885 1.134v4.386z"></path>
<path fill="#fff" style="fill: var(--color1, #fff)" d="M15.391 7.314l0.531-0.57c-1.218-1.215-3.19-1.215-4.408 0l-0.019 0.019 0.57 0.532c0.442-0.442 1.042-0.689 1.667-0.685s1.222 0.257 1.659 0.705z"></path>
<path fill="#fff" style="fill: var(--color1, #fff)" d="M17.749 6.744l-0.019 0.019 0.57 0.532c0.442-0.442 1.042-0.689 1.667-0.685s1.222 0.257 1.659 0.705l0.531-0.57c-1.218-1.215-3.19-1.215-4.408 0z"></path>
<path fill="#fff" style="fill: var(--color1, #fff)" d="M7.301 12.961c0.609-0.163 1.259-0.074 1.801 0.248l0.363-0.69c-1.491-0.861-3.397-0.35-4.258 1.141l-0.014 0.024 0.337 0.195 0.351 0.171c0.309-0.538 0.82-0.93 1.42-1.088z"></path>
<path fill="#fff" style="fill: var(--color1, #fff)" d="M21.052 10.941l-2.892 0.526c-0.876 0.16-1.774 0.16-2.649 0l-2.892-0.526c-0.175-0.032-0.349 0.059-0.423 0.22s-0.031 0.353 0.107 0.465l3.3 2.699c0.718 0.585 1.749 0.585 2.467 0l3.299-2.7c0.138-0.112 0.182-0.304 0.107-0.465s-0.249-0.252-0.424-0.22v0.001zM17.576 13.722c-0.431 0.351-1.050 0.351-1.481 0l-2.133-1.745 1.409 0.256c0.968 0.177 1.959 0.177 2.927 0l1.409-0.256-2.132 1.745z"></path>
</symbol>
<symbol id="icon-action" viewBox="0 0 25 32">
<path fill="#fff" style="fill: var(--color1, #fff)" d="M4.55 30.349h-2.835l-0.586 1.36h-1.059l2.623-5.8h0.855l2.631 5.8h-1.051l-0.578-1.36zM4.2 29.534l-1.067-2.484-1.067 2.484h2.134zM8.599 31.774c-0.429 0-0.801-0.087-1.116-0.261s-0.557-0.418-0.725-0.733c-0.168-0.32-0.253-0.695-0.253-1.124s0.087-0.806 0.261-1.132c0.179-0.326 0.429-0.578 0.749-0.758 0.326-0.185 0.7-0.277 1.124-0.277 0.293 0 0.576 0.046 0.847 0.138 0.277 0.092 0.497 0.22 0.66 0.383l-0.285 0.717c-0.174-0.141-0.358-0.247-0.554-0.318-0.196-0.076-0.388-0.114-0.578-0.114-0.369 0-0.657 0.117-0.863 0.35-0.206 0.228-0.31 0.559-0.31 0.994s0.1 0.766 0.301 0.994c0.206 0.228 0.497 0.342 0.872 0.342 0.19 0 0.383-0.038 0.578-0.114s0.38-0.185 0.554-0.326l0.285 0.717c-0.174 0.163-0.399 0.291-0.676 0.383s-0.567 0.138-0.872 0.138zM12.149 28.361v1.841c0 0.483 0.225 0.725 0.676 0.725 0.125 0 0.261-0.022 0.407-0.065v0.806c-0.179 0.065-0.396 0.098-0.652 0.098-0.467 0-0.825-0.13-1.075-0.391s-0.375-0.635-0.375-1.124v-1.89h-0.79v-0.766h0.79v-1.002l1.018-0.342v1.344h1.091v0.766h-1.091zM13.94 27.596h1.010v4.113h-1.010v-4.113zM15.007 25.73v1.002h-1.132v-1.002h1.132zM17.929 31.774c-0.418 0-0.787-0.087-1.108-0.261-0.315-0.174-0.559-0.421-0.733-0.741-0.168-0.326-0.252-0.706-0.252-1.14s0.084-0.812 0.252-1.132c0.174-0.326 0.418-0.576 0.733-0.749 0.32-0.174 0.69-0.261 1.108-0.261 0.413 0 0.777 0.087 1.091 0.261s0.557 0.424 0.725 0.749c0.174 0.32 0.261 0.698 0.261 1.132s-0.087 0.815-0.261 1.14c-0.168 0.32-0.41 0.568-0.725 0.741s-0.679 0.261-1.091 0.261zM17.921 30.976c0.348 0 0.611-0.111 0.79-0.334 0.185-0.228 0.277-0.565 0.277-1.010 0-0.44-0.092-0.774-0.277-1.002-0.185-0.233-0.445-0.35-0.782-0.35-0.342 0-0.605 0.117-0.79 0.35-0.185 0.228-0.277 0.562-0.277 1.002 0 0.445 0.090 0.782 0.269 1.010 0.185 0.223 0.448 0.334 0.79 0.334zM23.239 27.49c0.983 0 1.474 0.565 1.474 1.694v2.525h-1.018v-2.476c0-0.326-0.062-0.562-0.187-0.709-0.125-0.152-0.318-0.228-0.578-0.228-0.31 0-0.559 0.1-0.749 0.301-0.19 0.195-0.285 0.456-0.285 0.782v2.33h-1.010v-2.949c0-0.434-0.022-0.823-0.065-1.165h0.953l0.073 0.676c0.141-0.25 0.331-0.443 0.57-0.578 0.244-0.136 0.519-0.204 0.823-0.204z"></path>
<path fill="#fff" style="fill: var(--color1, #fff)" d="M3.787 14.549l0.364 2.182c0.015 0.092 0.066 0.175 0.14 0.231l2.818 2.114 0.328 0.983c0.024 0.072 0.070 0.135 0.132 0.18s0.136 0.069 0.213 0.069c0.020-0 0.040-0.002 0.060-0.005l0.174-0.029-0.215 0.646c-0.012 0.037-0.019 0.076-0.019 0.115v1.091c0 0.096 0.038 0.189 0.106 0.257s0.161 0.107 0.257 0.107h8.727c0.055 0 0.11-0.013 0.16-0.037s0.093-0.060 0.127-0.103c0.034-0.044 0.058-0.094 0.069-0.149s0.010-0.11-0.003-0.164l-0.219-0.871 2.232 1.275c0.080 0.046 0.174 0.059 0.264 0.038s0.168-0.076 0.219-0.152c0 0 0.757-1.145 0.76-1.153 0.001-0.003 0.381-1.506 0.381-1.506 0.020-0.080 0.012-0.165-0.022-0.24s-0.094-0.136-0.168-0.173l-0.727-0.364c-0.068-0.034-0.146-0.046-0.221-0.034s-0.145 0.048-0.199 0.102c0 0-0.793 0.811-0.811 0.859l-0.884-0.494 1.497-1.684c0.051-0.057 0.082-0.129 0.090-0.205l0.364-3.636c0.004-0.036 0.002-0.072-0.005-0.108l-0.569-2.846c-0.112-0.562-0.382-1.080-0.777-1.494s-0.9-0.708-1.455-0.847l-0.726-0.181-2.026-0.675-0.258-0.516v-0.55l0.218-0.164c0.045-0.034 0.082-0.078 0.107-0.128s0.038-0.106 0.038-0.163v-0.727c0.096 0 0.189-0.038 0.257-0.106s0.107-0.161 0.107-0.257v-1.397c0.241-0.742 0.364-1.518 0.364-2.298v-0.305c0-0.096-0.038-0.189-0.107-0.257s-0.161-0.107-0.257-0.107h-1.881c-0.734-0.002-1.441 0.282-1.969 0.791l-0.59 0.295c-0.305 0.152-0.561 0.387-0.74 0.676s-0.274 0.624-0.274 0.965c0 0.341 0.095 0.675 0.274 0.964s0.435 0.524 0.74 0.676l0.080 0.040c0.011 0.088 0.053 0.169 0.12 0.228s0.152 0.091 0.241 0.091v0.727c0 0.056 0.013 0.112 0.038 0.163s0.062 0.094 0.107 0.128l0.218 0.164v0.551l-0.263 0.527-1.625 0.65h-0.238c-0.83 0-1.633 0.294-2.266 0.831s-1.056 1.28-1.192 2.098l-0.214 1.281-1.395 1.744c-0.032 0.040-0.055 0.086-0.068 0.136s-0.015 0.101-0.007 0.152zM8.509 21.094l0.319-0.956 1.196-0.199c0.065-0.011 0.126-0.039 0.176-0.082s0.088-0.099 0.109-0.161l0.242-0.725 2.671 1.068-0.287 0.431c-0.050 0.076-0.071 0.168-0.057 0.258s0.061 0.171 0.132 0.228l1.009 0.807h-5.509v-0.668zM8.984 13.224l0.155 1.244-0.783-0.438 0.628-0.807zM12 10.562c0.147 0.11 0.326 0.169 0.509 0.169s0.362-0.059 0.509-0.169c0.685-0.516 1.141-1.279 1.271-2.126l0.036 0.012c-0.016 1.173-0.256 2.332-0.706 3.416-0.18 0.435-0.393 0.856-0.637 1.258l-0.11-0.022v-1.156c0-0.096-0.038-0.189-0.107-0.257s-0.161-0.107-0.257-0.107c-0.096 0-0.189 0.038-0.257 0.107s-0.107 0.161-0.107 0.257v1.171l-1.049 0.262-1.334-0.667c-0.036-0.018-0.074-0.030-0.114-0.035l-0.049-0.39v-3.367l1.133-0.453c0.136 0.836 0.59 1.588 1.267 2.098zM15.483 21.183l-0.455 0.455-1.304-1.043 0.473-0.71 0.349-0.116c0.003-0.001 0.006-0.003 0.009-0.004l1.273 0.728c-0.003 0.005-0.006 0.010-0.008 0.015l-0.337 0.674zM13.028 16.641l0.875-0.963c0.761-0.837 1.375-1.797 1.816-2.839l-0.651 2.277c-0.009 0.032-0.014 0.066-0.014 0.1v2.557l-2.027-1.132zM15.782 15.268l0.456-1.598 0.271 0.542v2.343l-0.727 1.018v-2.305zM15.782 8.938c0.002 2.312-0.86 4.542-2.417 6.251l-0.989 1.088-0.732-0.409 0.475-0.475c1.786-1.786 2.832-4.181 2.927-6.705l0.735 0.245v0.005zM9.928 14.909l-0.174-1.39 1.138 0.569c0.078 0.039 0.167 0.049 0.251 0.028l1.375-0.344 0.030 0.006c-0.285 0.391-0.6 0.76-0.942 1.102l-0.62 0.62-1.057-0.591zM7.905 14.611l3.595 2.009-0.384 0.577c-0.027 0.040-0.045 0.084-0.055 0.131s-0.010 0.095-0 0.142c0.009 0.047 0.028 0.092 0.054 0.132s0.061 0.074 0.101 0.101c0.040 0.027 0.085 0.045 0.132 0.054s0.095 0.009 0.142-0c0.047-0.009 0.092-0.028 0.131-0.055s0.074-0.061 0.1-0.101l0.416-0.624 0.511 0.286-0.442 0.662c-0.027 0.040-0.045 0.084-0.055 0.131s-0.010 0.095-0 0.142c0.009 0.047 0.028 0.092 0.054 0.132s0.061 0.074 0.101 0.101c0.040 0.027 0.085 0.045 0.132 0.054s0.095 0.009 0.142-0c0.047-0.009 0.092-0.028 0.131-0.055s0.074-0.061 0.1-0.101l0.473-0.71 1.26 0.704-0.535 0.86-0.161 0.054c-0.077 0.026-0.143 0.076-0.188 0.143l-0.028 0.042-3.101-1.241-1.038-1.038c-0.034-0.034-0.074-0.061-0.118-0.079s-0.091-0.028-0.139-0.028h-0.916l-1.166-1.458 0.751-0.966zM15.932 21.762l0.106-0.107c0.028-0.028 0.051-0.060 0.068-0.095l0.165-0.331 0.134 0.532h-0.474zM19.304 21.642l-4.403-2.516 0.279-0.449 4.445 2.484-0.321 0.481zM19.854 19.659l0.232 0.116-0.178 0.711-0.565-0.316 0.511-0.511zM17.864 9.813c0.321 0.32 0.54 0.729 0.628 1.174l0.559 2.793-0.346 3.465-1.525 1.716-1.069-0.597 1.058-1.481c0.044-0.062 0.068-0.136 0.068-0.211v-2.545c0-0.056-0.013-0.112-0.038-0.163l-0.689-1.378v-3.448l0.288 0.072c0.404 0.101 0.773 0.31 1.067 0.604zM11.055 4.671v-0.727h2.909v0.727h-0.641l-0.65-0.325c-0.050-0.025-0.106-0.038-0.163-0.038s-0.112 0.013-0.163 0.038l-0.65 0.325h-0.641zM9.964 3.399c-0.001-0.206 0.056-0.408 0.164-0.583s0.263-0.316 0.448-0.408l0.641-0.321c0.035-0.017 0.067-0.041 0.095-0.068 0.196-0.197 0.43-0.354 0.687-0.46s0.533-0.161 0.812-0.16h1.517c-0.005 0.615-0.095 1.227-0.267 1.818h-3.369c-0.096 0-0.189 0.038-0.257 0.107s-0.107 0.161-0.107 0.257v0.639c-0.115-0.104-0.207-0.23-0.269-0.372s-0.095-0.295-0.094-0.449zM11.782 5.399c0.056 0 0.112-0.013 0.163-0.038l0.565-0.282 0.565 0.282c0.050 0.025 0.106 0.038 0.163 0.038h0.364v0.545l-0.727 0.545h-0.727l-0.727-0.545v-0.545h0.364zM11.806 7.144c0.063 0.047 0.139 0.073 0.218 0.073h0.97c0.079 0 0.155-0.026 0.218-0.073l0.024-0.018v0.091c0 0.056 0.013 0.112 0.038 0.163l0.323 0.645c-0.013 0.381-0.111 0.754-0.286 1.093s-0.425 0.633-0.729 0.863c-0.021 0.016-0.047 0.024-0.073 0.024s-0.052-0.008-0.073-0.024c-0.304-0.23-0.553-0.524-0.729-0.863s-0.274-0.712-0.287-1.093l0.323-0.645c0.025-0.051 0.039-0.106 0.039-0.163v-0.091l0.024 0.018zM5.884 12.899c0.039-0.048 0.065-0.106 0.075-0.167l0.229-1.375c0.106-0.639 0.433-1.221 0.924-1.645s1.113-0.663 1.761-0.676v3.147l-1.262 1.622c-0.045 0.024-0.085 0.057-0.116 0.097s-0.054 0.087-0.066 0.137l-1.025 1.318c-0.050 0.065-0.077 0.144-0.077 0.226s0.029 0.161 0.080 0.225l1.455 1.818c0.034 0.043 0.077 0.077 0.126 0.101s0.103 0.036 0.157 0.036h0.94l0.825 0.825-0.223 0.67-1.659 0.277-0.265-0.796c-0.023-0.070-0.068-0.132-0.127-0.176l-2.793-2.094-0.313-1.878 1.353-1.691z"></path>
</symbol>
<symbol id="icon-sci-fi" viewBox="0 0 30 32">
<path fill="#fff" style="fill: var(--color1, #fff)" d="M8.143 31.805c-0.398 0-0.772-0.053-1.122-0.16-0.345-0.107-0.639-0.26-0.881-0.459l0.321-0.685c0.253 0.189 0.515 0.33 0.787 0.422 0.277 0.087 0.578 0.131 0.903 0.131 0.359 0 0.636-0.063 0.83-0.189 0.199-0.126 0.299-0.304 0.299-0.532 0-0.194-0.092-0.342-0.277-0.444-0.18-0.107-0.478-0.206-0.896-0.299-0.651-0.141-1.124-0.323-1.421-0.546s-0.444-0.549-0.444-0.976c0-0.306 0.083-0.578 0.248-0.816s0.398-0.425 0.699-0.561c0.306-0.136 0.658-0.204 1.056-0.204 0.364 0 0.709 0.056 1.034 0.168 0.33 0.107 0.6 0.257 0.809 0.452l-0.313 0.685c-0.461-0.369-0.971-0.554-1.53-0.554-0.335 0-0.6 0.070-0.794 0.211-0.194 0.136-0.291 0.323-0.291 0.561 0 0.204 0.085 0.359 0.255 0.466 0.175 0.107 0.471 0.206 0.889 0.299 0.432 0.102 0.784 0.214 1.056 0.335 0.272 0.117 0.481 0.27 0.626 0.459 0.146 0.184 0.219 0.418 0.219 0.699 0 0.311-0.083 0.583-0.248 0.816-0.165 0.228-0.403 0.406-0.714 0.532s-0.677 0.189-1.1 0.189zM12.678 31.798c-0.384 0-0.716-0.078-0.998-0.233s-0.498-0.374-0.648-0.656c-0.151-0.286-0.226-0.622-0.226-1.005s0.078-0.721 0.233-1.013c0.16-0.291 0.384-0.517 0.67-0.677 0.291-0.165 0.626-0.248 1.005-0.248 0.262 0 0.515 0.041 0.758 0.124 0.248 0.082 0.444 0.197 0.59 0.342l-0.255 0.641c-0.155-0.126-0.321-0.221-0.495-0.284-0.175-0.068-0.347-0.102-0.517-0.102-0.33 0-0.588 0.104-0.772 0.313-0.185 0.204-0.277 0.5-0.277 0.889s0.090 0.685 0.27 0.889c0.185 0.204 0.444 0.306 0.779 0.306 0.17 0 0.342-0.034 0.517-0.102s0.34-0.165 0.495-0.291l0.255 0.641c-0.155 0.146-0.357 0.26-0.605 0.342s-0.508 0.124-0.779 0.124zM14.674 28.061h0.903v3.679h-0.903v-3.679zM15.628 26.393v0.896h-1.013v-0.896h1.013zM16.58 29.409h2.193v0.728h-2.193v-0.728zM20.925 28.061h2.418v3.679h-0.911v-2.994h-1.508v2.994h-0.911v-2.994h-0.707v-0.685h0.707v-0.372c0-0.33 0.051-0.59 0.153-0.779 0.102-0.194 0.267-0.335 0.495-0.422 0.233-0.087 0.549-0.131 0.947-0.131h0.27v0.67h-0.175c-0.228 0-0.396 0.020-0.503 0.058-0.107 0.034-0.18 0.104-0.219 0.211-0.039 0.102-0.058 0.267-0.058 0.495v0.27zM23.402 26.357v0.918h-1.027v-0.918h1.027z"></path>
<path fill="#fff" style="fill: var(--color1, #fff)" d="M14.354 19.21l-3.904-4.113c-0.051-0.054-0.079-0.126-0.077-0.201s0.033-0.145 0.088-0.197l6.387-6.061c0.007-0.007 0.015-0.014 0.022-0.021 1.272-0.969 2.94-1.219 5.099-0.764 0.056 0.012 0.107 0.040 0.146 0.082s0.065 0.094 0.074 0.15c0.343 2.182 0.005 3.834-1.031 5.053-0.006 0.008-0.013 0.015-0.020 0.022l-6.386 6.061c-0.054 0.051-0.126 0.079-0.2 0.077s-0.145-0.033-0.196-0.087zM11.052 14.913l3.517 3.705 6.172-5.857c0.9-1.064 1.195-2.466 0.923-4.396-1.913-0.371-3.328-0.149-4.439 0.691l-6.172 5.856z"></path>
<path fill="#fff" style="fill: var(--color1, #fff)" d="M9.032 14.445c-0.027-0.028-0.047-0.062-0.061-0.098s-0.019-0.075-0.016-0.114l0.038-0.56c0.034-0.571 0.233-1.119 0.571-1.58s0.802-0.814 1.336-1.018l0.034-0.013c1.144-0.422 2.406-0.386 3.524 0.1 0.040 0.020 0.075 0.050 0.102 0.087s0.044 0.079 0.050 0.124c0.007 0.045 0.002 0.090-0.012 0.133s-0.040 0.081-0.072 0.112l-2.87 2.724c-0.035 0.033-0.077 0.056-0.123 0.068s-0.095 0.012-0.141-0c-0.681-0.156-1.392-0.12-2.054 0.105-0.044 0.017-0.092 0.022-0.139 0.016s-0.091-0.025-0.129-0.053c-0.014-0.010-0.026-0.021-0.038-0.032zM10.998 11.339l0.098 0.263c-0.432 0.166-0.808 0.453-1.081 0.827s-0.433 0.819-0.46 1.281l-0.011 0.157c0.601-0.146 1.227-0.16 1.835-0.040l2.433-2.309c-0.88-0.263-1.821-0.238-2.685 0.071l-0.129-0.252z"></path>
<path fill="#fff" style="fill: var(--color1, #fff)" d="M14.932 20.663c-0.011-0.012-0.022-0.025-0.031-0.039-0.026-0.039-0.042-0.085-0.046-0.132s0.004-0.094 0.023-0.137c0.259-0.649 0.333-1.357 0.212-2.045-0.010-0.047-0.007-0.095 0.007-0.141s0.040-0.087 0.075-0.12l2.871-2.724c0.033-0.031 0.073-0.054 0.116-0.066s0.089-0.014 0.134-0.005c0.044 0.009 0.086 0.028 0.121 0.057s0.063 0.065 0.081 0.106c0.427 1.142 0.396 2.404-0.085 3.524l-0.015 0.034c-0.232 0.523-0.609 0.967-1.087 1.281s-1.036 0.483-1.608 0.488l-0.561 0.008c-0.039 0-0.077-0.007-0.113-0.022s-0.068-0.037-0.095-0.066zM15.671 18.352c0.088 0.613 0.042 1.237-0.136 1.83l0.158-0.002c0.463-0.003 0.916-0.139 1.303-0.393s0.694-0.613 0.883-1.036l0.271 0.081-0.259-0.109c0.355-0.847 0.429-1.786 0.212-2.678l-2.431 2.307z"></path>
<path fill="#fff" style="fill: var(--color1, #fff)" d="M18.007 11.835c-0.202-0.213-0.336-0.48-0.386-0.769s-0.013-0.586 0.107-0.853c0.119-0.268 0.315-0.494 0.563-0.65s0.536-0.236 0.829-0.228c0.293 0.008 0.577 0.102 0.816 0.271s0.423 0.405 0.528 0.679c0.105 0.274 0.127 0.572 0.062 0.858s-0.213 0.546-0.425 0.748c-0.285 0.27-0.666 0.416-1.058 0.406s-0.765-0.176-1.036-0.46zM19.748 10.183c-0.125-0.132-0.286-0.224-0.464-0.264s-0.363-0.027-0.532 0.038c-0.17 0.065-0.316 0.179-0.421 0.328s-0.163 0.325-0.168 0.506c-0.005 0.182 0.044 0.361 0.142 0.514s0.237 0.275 0.403 0.349c0.166 0.074 0.35 0.097 0.529 0.066s0.345-0.114 0.477-0.239c0.176-0.168 0.279-0.399 0.285-0.642s-0.084-0.479-0.252-0.656z"></path>
<path fill="#fff" style="fill: var(--color1, #fff)" d="M13.311 19.799l-3.503-3.691c-0.051-0.054-0.079-0.126-0.077-0.201s0.033-0.145 0.088-0.197l0.843-0.8c0.054-0.051 0.126-0.079 0.201-0.077s0.145 0.033 0.197 0.088l3.503 3.691c0.051 0.054 0.079 0.126 0.077 0.201s-0.033 0.145-0.088 0.197l-0.843 0.8c-0.054 0.051-0.126 0.079-0.201 0.077s-0.145-0.033-0.197-0.088zM10.409 15.924l3.116 3.283 0.435-0.413-3.116-3.283-0.435 0.413z"></path>
<path fill="#fff" style="fill: var(--color1, #fff)" d="M7.849 21.502c-0.122-0.141-0.199-0.315-0.221-0.501s0.011-0.373 0.096-0.539c0.23-0.561 0.387-1.15 0.465-1.752 0.166-1.027 0.297-1.839 2.101-2.64 0.053-0.024 0.112-0.030 0.169-0.019s0.109 0.040 0.149 0.082l2.715 2.861c0.040 0.042 0.066 0.096 0.074 0.153s-0.001 0.116-0.028 0.168c-0.222 0.475-0.523 0.908-0.889 1.283-0.576 0.546-1.165 0.616-1.848 0.696-0.599 0.052-1.19 0.181-1.756 0.383-0.169 0.076-0.357 0.101-0.54 0.069s-0.353-0.116-0.487-0.245l-0.001-0.001zM10.338 16.667c-1.354 0.641-1.441 1.182-1.595 2.134-0.086 0.646-0.254 1.279-0.502 1.882-0.076 0.18-0.071 0.342 0.016 0.433s0.245 0.103 0.426 0.036c0.608-0.217 1.242-0.356 1.885-0.414 0.654-0.077 1.086-0.128 1.526-0.545 0.276-0.281 0.506-0.604 0.683-0.956l-2.439-2.57z"></path>
<path fill="#fff" style="fill: var(--color1, #fff)" d="M9.772 19.663c-0.080-0.092-0.132-0.205-0.148-0.326s0.004-0.244 0.057-0.353c0.113-0.276 0.19-0.566 0.229-0.862 0.085-0.518 0.158-0.964 1.002-1.381 0.054-0.026 0.115-0.035 0.174-0.024s0.113 0.040 0.154 0.083l1.452 1.53c0.041 0.043 0.067 0.099 0.075 0.158s-0.004 0.12-0.033 0.172c-0.106 0.201-0.242 0.386-0.403 0.547-0.283 0.249-0.646 0.389-1.023 0.393-0.295 0.026-0.585 0.089-0.864 0.188-0.112 0.048-0.235 0.062-0.355 0.040s-0.23-0.079-0.317-0.163l-0.001-0.001zM10.979 17.342c-0.413 0.244-0.448 0.458-0.515 0.87-0.046 0.34-0.135 0.673-0.266 0.991-0.012 0.024-0.018 0.050-0.016 0.077 0-0.006 0.026-0.005 0.067-0.020 0.321-0.115 0.655-0.188 0.994-0.219 0.255 0.006 0.504-0.080 0.701-0.242 0.073-0.072 0.138-0.151 0.193-0.238l-1.158-1.219z"></path>
<path fill="#fff" style="fill: var(--color1, #fff)" d="M13.539 16.076c-0.051-0.054-0.079-0.126-0.077-0.201s0.033-0.145 0.088-0.197l1.196-1.135c0.054-0.051 0.126-0.079 0.201-0.077s0.145 0.033 0.197 0.088c0.051 0.054 0.079 0.126 0.077 0.201s-0.033 0.145-0.088 0.197l-1.196 1.135c-0.054 0.051-0.126 0.079-0.201 0.077s-0.145-0.033-0.197-0.088z"></path>
<path fill="#fff" style="fill: var(--color1, #fff)" d="M12.634 15.112c-0.051-0.054-0.079-0.126-0.077-0.201s0.033-0.145 0.088-0.197l0.526-0.499c0.054-0.051 0.126-0.079 0.201-0.077s0.145 0.033 0.197 0.088c0.051 0.054 0.079 0.126 0.077 0.201s-0.033 0.145-0.088 0.197l-0.526 0.499c-0.054 0.051-0.126 0.079-0.201 0.077s-0.145-0.033-0.197-0.088z"></path>
<path fill="#fff" style="fill: var(--color1, #fff)" d="M14.452 17.028c-0.051-0.054-0.079-0.126-0.077-0.201s0.033-0.145 0.088-0.197l0.526-0.499c0.054-0.051 0.126-0.079 0.201-0.077s0.145 0.033 0.197 0.088c0.051 0.054 0.079 0.126 0.077 0.201s-0.033 0.145-0.088 0.197l-0.526 0.499c-0.054 0.051-0.126 0.079-0.201 0.077s-0.145-0.033-0.197-0.088z"></path>
</symbol>
<symbol id="icon-comedy" viewBox="0 0 29 32">
<path fill="#fff" style="fill: var(--color1, #fff)" d="M3.024 30.215c-0.518 0-0.973-0.111-1.363-0.333-0.385-0.222-0.681-0.536-0.889-0.94-0.207-0.41-0.311-0.889-0.311-1.437 0-0.543 0.104-1.017 0.311-1.422 0.207-0.41 0.504-0.723 0.889-0.94 0.39-0.222 0.844-0.333 1.363-0.333 0.355 0 0.689 0.057 1 0.17 0.316 0.109 0.578 0.262 0.785 0.459l-0.311 0.696c-0.237-0.193-0.474-0.331-0.711-0.415-0.232-0.089-0.481-0.133-0.748-0.133-0.508 0-0.903 0.165-1.185 0.496-0.276 0.331-0.415 0.805-0.415 1.422 0 0.622 0.138 1.101 0.415 1.437 0.276 0.331 0.671 0.496 1.185 0.496 0.267 0 0.516-0.042 0.748-0.126 0.237-0.089 0.474-0.23 0.711-0.422l0.311 0.696c-0.207 0.198-0.469 0.353-0.785 0.466-0.311 0.109-0.644 0.163-1 0.163zM7.259 30.208c-0.38 0-0.716-0.079-1.007-0.237-0.286-0.158-0.508-0.383-0.666-0.674-0.153-0.296-0.23-0.642-0.23-1.037s0.077-0.738 0.23-1.029c0.158-0.296 0.38-0.523 0.666-0.681 0.291-0.158 0.627-0.237 1.007-0.237 0.375 0 0.706 0.079 0.992 0.237s0.506 0.385 0.659 0.681c0.158 0.291 0.237 0.634 0.237 1.029s-0.079 0.741-0.237 1.037c-0.153 0.291-0.373 0.516-0.659 0.674s-0.617 0.237-0.992 0.237zM7.251 29.482c0.316 0 0.555-0.101 0.718-0.304 0.168-0.207 0.252-0.513 0.252-0.918 0-0.4-0.084-0.703-0.252-0.911-0.168-0.212-0.405-0.318-0.711-0.318-0.311 0-0.55 0.106-0.718 0.318-0.168 0.207-0.252 0.511-0.252 0.911 0 0.405 0.081 0.711 0.244 0.918 0.168 0.202 0.407 0.304 0.718 0.304zM14.359 26.313c0.425 0 0.741 0.128 0.948 0.385 0.207 0.252 0.311 0.637 0.311 1.155v2.296h-0.926v-2.266c0-0.296-0.049-0.509-0.148-0.637-0.094-0.133-0.252-0.2-0.474-0.2-0.257 0-0.459 0.091-0.607 0.274-0.143 0.178-0.215 0.424-0.215 0.741v2.088h-0.926v-2.266c0-0.291-0.052-0.504-0.155-0.637-0.099-0.133-0.257-0.2-0.474-0.2-0.257 0-0.459 0.091-0.607 0.274-0.148 0.178-0.222 0.424-0.222 0.741v2.088h-0.918v-2.681c0-0.395-0.020-0.748-0.059-1.059h0.866l0.067 0.592c0.109-0.222 0.264-0.392 0.466-0.511 0.207-0.118 0.444-0.178 0.711-0.178 0.573 0 0.945 0.237 1.118 0.711 0.118-0.222 0.286-0.395 0.504-0.518 0.222-0.128 0.469-0.193 0.741-0.193zM19.878 28.327h-2.577c0.020 0.4 0.118 0.696 0.296 0.889 0.183 0.188 0.452 0.281 0.807 0.281 0.41 0 0.79-0.133 1.14-0.4l0.267 0.637c-0.178 0.143-0.397 0.259-0.659 0.348-0.257 0.084-0.518 0.126-0.785 0.126-0.612 0-1.093-0.173-1.444-0.518s-0.526-0.82-0.526-1.422c0-0.38 0.076-0.718 0.23-1.014s0.368-0.526 0.644-0.689c0.276-0.168 0.59-0.252 0.94-0.252 0.513 0 0.918 0.168 1.214 0.504 0.301 0.331 0.452 0.787 0.452 1.37v0.141zM18.234 26.979c-0.247 0-0.449 0.074-0.607 0.222-0.153 0.143-0.252 0.353-0.296 0.629h1.74c-0.030-0.281-0.116-0.494-0.259-0.637-0.138-0.143-0.331-0.215-0.578-0.215zM24.239 24.699v5.45h-0.911v-0.6c-0.114 0.207-0.276 0.37-0.489 0.489-0.212 0.113-0.454 0.17-0.726 0.17-0.321 0-0.607-0.081-0.859-0.244s-0.449-0.392-0.592-0.689c-0.138-0.301-0.207-0.644-0.207-1.029s0.069-0.723 0.207-1.014c0.138-0.291 0.333-0.516 0.585-0.674 0.252-0.163 0.541-0.244 0.866-0.244 0.267 0 0.504 0.057 0.711 0.17 0.212 0.109 0.375 0.264 0.489 0.466v-2.251h0.926zM22.358 29.482c0.306 0 0.543-0.106 0.711-0.318 0.173-0.212 0.259-0.513 0.259-0.903s-0.084-0.691-0.252-0.903c-0.168-0.212-0.405-0.318-0.711-0.318-0.311 0-0.553 0.106-0.726 0.318-0.168 0.207-0.252 0.504-0.252 0.889 0 0.39 0.084 0.694 0.252 0.911 0.173 0.217 0.412 0.326 0.718 0.326zM28.787 26.409l-1.74 3.991c-0.198 0.464-0.449 0.802-0.755 1.014s-0.684 0.353-1.133 0.422l-0.207-0.711c0.351-0.079 0.612-0.18 0.785-0.304 0.178-0.118 0.321-0.296 0.43-0.533l0.118-0.274-1.555-3.606h0.97l1.074 2.688 1.096-2.688h0.918z"></path>
<path fill="#fff" style="fill: var(--color1, #fff)" d="M18.727 12.995c-0.189-0.17-0.481-0.153-0.649 0.036-0.959 1.072-2.343 1.687-3.797 1.687s-2.837-0.614-3.797-1.687c-0.17-0.189-0.46-0.206-0.649-0.036s-0.205 0.46-0.036 0.649c1.134 1.267 2.767 1.993 4.482 1.993s3.349-0.727 4.482-1.993c0.169-0.19 0.153-0.48-0.036-0.649z"></path>
<path fill="#fff" style="fill: var(--color1, #fff)" d="M14.281 0c-5.833 0-10.579 4.746-10.579 10.579s4.746 10.579 10.579 10.579c5.833 0 10.579-4.746 10.579-10.579s-4.746-10.579-10.579-10.579zM14.281 20.237c-5.326 0-9.659-4.333-9.659-9.659s4.333-9.659 9.659-9.659c5.326 0 9.659 4.333 9.659 9.659s-4.333 9.659-9.659 9.659z"></path>
<path fill="#fff" style="fill: var(--color1, #fff)" d="M17.96 7.359c-1.268 0-2.3 1.032-2.3 2.3 0 0.254 0.206 0.46 0.46 0.46s0.46-0.206 0.46-0.46c0-0.761 0.619-1.38 1.38-1.38s1.38 0.619 1.38 1.38c0 0.254 0.206 0.46 0.46 0.46s0.46-0.206 0.46-0.46c0-1.268-1.032-2.3-2.3-2.3z"></path>
<path fill="#fff" style="fill: var(--color1, #fff)" d="M11.981 9.659c0 0.254 0.206 0.46 0.46 0.46s0.46-0.206 0.46-0.46c0-1.268-1.032-2.3-2.3-2.3s-2.3 1.032-2.3 2.3c0 0.254 0.206 0.46 0.46 0.46s0.46-0.206 0.46-0.46c0-0.761 0.619-1.38 1.38-1.38s1.38 0.619 1.38 1.38z"></path>
</symbol>
<symbol id="icon-documentary" viewBox="0 0 50 32">
<path fill="#fff" style="fill: var(--color1, #fff)" d="M0.731 24.569h2.024c0.901 0 1.599 0.239 2.093 0.718 0.5 0.479 0.749 1.153 0.749 2.024 0 0.875-0.25 1.555-0.749 2.039-0.494 0.479-1.192 0.718-2.093 0.718h-2.024v-5.5zM2.692 29.258c1.267 0 1.9-0.649 1.9-1.946 0-1.287-0.633-1.931-1.9-1.931h-0.966v3.878h0.966zM8.313 30.131c-0.396 0-0.747-0.082-1.050-0.247-0.299-0.165-0.53-0.399-0.695-0.703-0.16-0.309-0.239-0.67-0.239-1.081s0.080-0.77 0.239-1.074c0.165-0.309 0.396-0.546 0.695-0.711 0.304-0.165 0.654-0.247 1.050-0.247 0.391 0 0.736 0.082 1.035 0.247s0.528 0.402 0.687 0.711c0.165 0.304 0.247 0.662 0.247 1.074s-0.082 0.772-0.247 1.081c-0.16 0.304-0.389 0.538-0.687 0.703s-0.644 0.247-1.035 0.247zM8.306 29.374c0.33 0 0.579-0.106 0.749-0.317 0.175-0.216 0.263-0.535 0.263-0.958 0-0.417-0.088-0.734-0.263-0.95-0.175-0.221-0.422-0.332-0.742-0.332-0.324 0-0.574 0.111-0.749 0.332-0.175 0.216-0.263 0.533-0.263 0.95 0 0.422 0.085 0.742 0.255 0.958 0.175 0.211 0.425 0.317 0.749 0.317zM12.885 30.131c-0.407 0-0.76-0.082-1.058-0.247s-0.528-0.396-0.687-0.695c-0.16-0.304-0.239-0.659-0.239-1.066s0.082-0.765 0.247-1.074c0.17-0.309 0.407-0.548 0.711-0.718 0.309-0.175 0.664-0.263 1.066-0.263 0.278 0 0.546 0.044 0.803 0.131 0.263 0.088 0.471 0.209 0.626 0.363l-0.27 0.68c-0.165-0.134-0.34-0.234-0.525-0.301-0.185-0.072-0.368-0.108-0.548-0.108-0.35 0-0.623 0.111-0.819 0.332-0.196 0.216-0.294 0.53-0.294 0.942s0.095 0.726 0.286 0.942c0.196 0.216 0.471 0.324 0.826 0.324 0.18 0 0.363-0.036 0.548-0.108s0.36-0.175 0.525-0.309l0.27 0.68c-0.165 0.154-0.378 0.276-0.641 0.363s-0.538 0.131-0.826 0.131zM18.554 26.168v3.901h-0.942v-0.602c-0.124 0.216-0.288 0.381-0.494 0.494s-0.443 0.17-0.711 0.17c-0.953 0-1.429-0.535-1.429-1.607v-2.356h0.958v2.364c0 0.283 0.057 0.492 0.17 0.626 0.118 0.134 0.299 0.201 0.541 0.201 0.283 0 0.51-0.093 0.68-0.278s0.255-0.433 0.255-0.742v-2.17h0.973zM24.205 26.068c0.443 0 0.772 0.134 0.989 0.402 0.216 0.263 0.324 0.664 0.324 1.205v2.394h-0.966v-2.364c0-0.309-0.051-0.53-0.154-0.664-0.098-0.139-0.263-0.209-0.494-0.209-0.268 0-0.479 0.095-0.633 0.286-0.149 0.185-0.224 0.443-0.224 0.772v2.178h-0.966v-2.364c0-0.304-0.054-0.525-0.162-0.664-0.103-0.139-0.268-0.209-0.494-0.209-0.268 0-0.479 0.095-0.633 0.286-0.154 0.185-0.232 0.443-0.232 0.772v2.178h-0.958v-2.796c0-0.412-0.021-0.78-0.062-1.105h0.904l0.070 0.618c0.113-0.232 0.276-0.409 0.487-0.533 0.216-0.124 0.463-0.185 0.742-0.185 0.597 0 0.986 0.247 1.166 0.742 0.124-0.232 0.299-0.412 0.525-0.541 0.232-0.134 0.489-0.201 0.772-0.201zM29.963 28.169h-2.688c0.021 0.417 0.124 0.726 0.309 0.927 0.191 0.196 0.471 0.294 0.842 0.294 0.427 0 0.824-0.139 1.19-0.417l0.278 0.664c-0.185 0.149-0.415 0.27-0.687 0.363-0.268 0.087-0.541 0.131-0.819 0.131-0.639 0-1.141-0.18-1.506-0.541s-0.548-0.855-0.548-1.483c0-0.396 0.080-0.749 0.239-1.058s0.384-0.548 0.672-0.718c0.288-0.175 0.615-0.263 0.981-0.263 0.535 0 0.958 0.175 1.267 0.525 0.314 0.345 0.471 0.821 0.471 1.429v0.147zM28.248 26.763c-0.257 0-0.469 0.077-0.633 0.232-0.16 0.149-0.263 0.368-0.309 0.657h1.815c-0.031-0.294-0.121-0.515-0.27-0.664-0.144-0.149-0.345-0.224-0.602-0.224zM33.013 26.068c0.932 0 1.398 0.536 1.398 1.607v2.394h-0.966v-2.348c0-0.309-0.059-0.533-0.178-0.672-0.119-0.144-0.301-0.216-0.548-0.216-0.294 0-0.53 0.095-0.711 0.286-0.18 0.185-0.27 0.433-0.27 0.742v2.209h-0.958v-2.796c0-0.412-0.021-0.78-0.062-1.105h0.904l0.070 0.641c0.134-0.237 0.314-0.42 0.541-0.548 0.232-0.129 0.492-0.193 0.78-0.193zM36.663 26.894v1.746c0 0.458 0.214 0.687 0.641 0.687 0.118 0 0.247-0.021 0.386-0.062v0.765c-0.17 0.062-0.376 0.093-0.618 0.093-0.443 0-0.783-0.124-1.020-0.371s-0.355-0.602-0.355-1.066v-1.792h-0.749v-0.726h0.749v-0.95l0.966-0.324v1.274h1.035v0.726h-1.035zM42.092 26.168v3.901h-0.95v-0.626c-0.118 0.216-0.288 0.386-0.51 0.51-0.221 0.118-0.474 0.178-0.757 0.178-0.34 0-0.641-0.082-0.904-0.247s-0.466-0.399-0.61-0.703c-0.144-0.304-0.216-0.657-0.216-1.058s0.072-0.757 0.216-1.066c0.15-0.314 0.355-0.556 0.618-0.726 0.263-0.175 0.561-0.263 0.896-0.263 0.283 0 0.536 0.062 0.757 0.185 0.222 0.118 0.391 0.286 0.51 0.502v-0.587h0.95zM40.138 29.374c0.319 0 0.567-0.111 0.742-0.332s0.263-0.533 0.263-0.935c0-0.412-0.087-0.729-0.263-0.95s-0.425-0.332-0.749-0.332c-0.319 0-0.569 0.116-0.749 0.348-0.175 0.227-0.263 0.543-0.263 0.95 0 0.402 0.088 0.711 0.263 0.927 0.18 0.216 0.433 0.324 0.757 0.324zM45.245 26.076c0.15 0 0.278 0.021 0.386 0.062l-0.008 0.881c-0.165-0.067-0.335-0.1-0.51-0.1-0.329 0-0.582 0.095-0.757 0.286-0.17 0.191-0.255 0.443-0.255 0.757v2.109h-0.958v-2.796c0-0.412-0.020-0.78-0.062-1.105h0.904l0.077 0.687c0.098-0.252 0.252-0.445 0.463-0.579s0.451-0.201 0.718-0.201zM50.095 26.168l-1.815 4.163c-0.206 0.484-0.469 0.837-0.788 1.058s-0.713 0.368-1.182 0.44l-0.216-0.742c0.366-0.082 0.638-0.188 0.819-0.317 0.185-0.124 0.335-0.309 0.448-0.556l0.124-0.286-1.622-3.762h1.012l1.12 2.804 1.143-2.804h0.958z"></path>
<path fill="#fff" style="fill: var(--color1, #fff)" d="M20.309 15.012h0.625c0.069 0 0.134-0.027 0.183-0.076s0.076-0.114 0.076-0.183c0-0.069-0.027-0.134-0.076-0.183s-0.114-0.076-0.183-0.076h-0.625c-0.069 0-0.134 0.027-0.183 0.076s-0.076 0.114-0.076 0.183c0 0.069 0.027 0.134 0.076 0.183s0.114 0.076 0.183 0.076z"></path>
<path fill="#fff" style="fill: var(--color1, #fff)" d="M23.271 15.666h0.8c0.069 0 0.134-0.027 0.183-0.076s0.076-0.114 0.076-0.183c0-0.069-0.027-0.134-0.076-0.183s-0.114-0.076-0.183-0.076h-0.8c-0.069 0-0.134 0.027-0.183 0.076s-0.076 0.114-0.076 0.183c0 0.069 0.027 0.134 0.076 0.183s0.114 0.076 0.183 0.076z"></path>
<path fill="#fff" style="fill: var(--color1, #fff)" d="M27.804 17.019h0.669c0.069 0 0.134-0.027 0.183-0.076s0.076-0.114 0.076-0.183c0-0.069-0.027-0.134-0.076-0.183s-0.114-0.076-0.183-0.076h-0.669c-0.069 0-0.134 0.027-0.183 0.076s-0.076 0.114-0.076 0.183 0.027 0.134 0.076 0.183c0.049 0.049 0.114 0.076 0.183 0.076z"></path>
<path fill="#fff" style="fill: var(--color1, #fff)" d="M20.924 16.891c0 0.069 0.027 0.134 0.076 0.183s0.114 0.076 0.183 0.076h0.625c0.069 0 0.134-0.027 0.183-0.076s0.076-0.114 0.076-0.183c0-0.069-0.027-0.134-0.076-0.183s-0.114-0.076-0.183-0.076h-0.625c-0.069 0-0.134 0.027-0.183 0.076s-0.076 0.114-0.076 0.183z"></path>
<path fill="#fff" style="fill: var(--color1, #fff)" d="M31.473 17.459c0 0.069 0.027 0.134 0.076 0.183s0.114 0.076 0.183 0.076h0.756c0.069 0 0.134-0.027 0.183-0.076s0.076-0.114 0.076-0.183c0-0.069-0.027-0.134-0.076-0.183s-0.114-0.076-0.183-0.076h-0.756c-0.069 0-0.134 0.027-0.183 0.076s-0.076 0.114-0.076 0.183z"></path>
<path fill="#fff" style="fill: var(--color1, #fff)" d="M17.706 17.2h-0.756c-0.069 0-0.134 0.027-0.183 0.076s-0.076 0.114-0.076 0.183c0 0.069 0.027 0.134 0.076 0.183s0.114 0.076 0.183 0.076h0.756c0.069 0 0.134-0.027 0.183-0.076s0.076-0.114 0.076-0.183c0-0.069-0.027-0.134-0.076-0.183s-0.114-0.076-0.183-0.076z"></path>
<path fill="#fff" style="fill: var(--color1, #fff)" d="M26.020 15.092h0.625c0.069 0 0.134-0.027 0.183-0.076s0.076-0.114 0.076-0.183c0-0.069-0.027-0.134-0.076-0.183s-0.114-0.076-0.183-0.076h-0.625c-0.069 0-0.134 0.027-0.183 0.076s-0.076 0.114-0.076 0.183c0 0.069 0.027 0.134 0.076 0.183s0.114 0.076 0.183 0.076z"></path>
<path fill="#fff" style="fill: var(--color1, #fff)" d="M23.91 11.501h1.836c0.069 0 0.134-0.027 0.183-0.076s0.076-0.114 0.076-0.183v-1.234c0-0.312-0.124-0.611-0.345-0.832s-0.52-0.345-0.832-0.345c-0.312 0-0.611 0.124-0.832 0.345s-0.345 0.52-0.345 0.832v1.234c0 0.069 0.027 0.134 0.076 0.183s0.114 0.076 0.183 0.076zM24.168 10.008c0-0.175 0.069-0.343 0.193-0.466s0.291-0.193 0.466-0.193c0.175 0 0.343 0.069 0.466 0.193s0.193 0.291 0.193 0.466v0.976h-1.319v-0.976z"></path>
<path fill="#fff" style="fill: var(--color1, #fff)" d="M22.807 8.246c-0.069 0-0.134 0.027-0.183 0.076s-0.076 0.114-0.076 0.183v0.199c0 0.069 0.027 0.134 0.076 0.183s0.114 0.076 0.183 0.076c0.069 0 0.134-0.027 0.183-0.076s0.076-0.114 0.076-0.183v-0.199c0-0.069-0.027-0.134-0.076-0.183s-0.114-0.076-0.183-0.076z"></path>
<path fill="#fff" style="fill: var(--color1, #fff)" d="M22.807 9.228c-0.069 0-0.134 0.027-0.183 0.076s-0.076 0.114-0.076 0.183v1.616c0 0.069 0.027 0.134 0.076 0.183s0.114 0.076 0.183 0.076c0.069 0 0.134-0.027 0.183-0.076s0.076-0.114 0.076-0.183v-1.616c0-0.069-0.027-0.134-0.076-0.183s-0.114-0.076-0.183-0.076z"></path>
<path fill="#fff" style="fill: var(--color1, #fff)" d="M31.873 13.444c0-0.069-0.027-0.134-0.076-0.183s-0.114-0.076-0.183-0.076h-0.713c-0.068 0-0.134 0.027-0.183 0.076s-0.076 0.114-0.076 0.183 0.027 0.134 0.076 0.183c0.049 0.049 0.114 0.076 0.183 0.076h0.713c0.069 0 0.134-0.027 0.183-0.076s0.076-0.114 0.076-0.183z"></path>
<path fill="#fff" style="fill: var(--color1, #fff)" d="M19.208 11.778c0-0.069-0.027-0.134-0.076-0.183s-0.114-0.076-0.183-0.076h-0.713c-0.069 0-0.134 0.027-0.183 0.076s-0.076 0.114-0.076 0.183c0 0.069 0.027 0.134 0.076 0.183s0.114 0.076 0.183 0.076h0.713c0.069 0 0.134-0.027 0.183-0.076s0.076-0.114 0.076-0.183z"></path>
<path fill="#fff" style="fill: var(--color1, #fff)" d="M33.808 19.954v-9.085c0.181-0.005 0.353-0.080 0.479-0.21s0.197-0.303 0.198-0.484v-2.356c0-0.069-0.027-0.134-0.076-0.183s-0.114-0.076-0.183-0.076h-0.976c-0.069 0-0.134 0.027-0.183 0.076s-0.076 0.114-0.076 0.183v0.527h-0.527v-0.527c0-0.069-0.027-0.134-0.076-0.183s-0.114-0.076-0.183-0.076h-0.976c-0.069 0-0.134 0.027-0.183 0.076s-0.076 0.114-0.076 0.183v0.527h-0.527v-0.527c0-0.069-0.027-0.134-0.076-0.183s-0.114-0.076-0.183-0.076h-0.976c-0.069 0-0.134 0.027-0.183 0.076s-0.076 0.114-0.076 0.183v2.356c0 0.181 0.071 0.355 0.197 0.484s0.298 0.205 0.479 0.21v1.491h-1.071c-0.068 0-0.134 0.027-0.183 0.076s-0.076 0.114-0.076 0.183v0.527h-0.226v-5.526h0.438c0.050-0 0.099-0.015 0.142-0.042s0.075-0.067 0.095-0.113 0.026-0.097 0.018-0.147c-0.009-0.050-0.031-0.096-0.065-0.133l-3.611-3.899v-0.624l1.786-0.777c0.046-0.020 0.085-0.052 0.112-0.094s0.043-0.090 0.043-0.14c0.001-0.050-0.013-0.099-0.039-0.141s-0.064-0.076-0.109-0.097l-1.824-0.857c-0.027-0.051-0.071-0.091-0.124-0.114s-0.112-0.028-0.167-0.014c-0.056 0.014-0.105 0.046-0.141 0.092s-0.055 0.101-0.054 0.159v2.606l-3.611 3.899c-0.034 0.037-0.057 0.083-0.065 0.133s-0.002 0.101 0.018 0.147c0.020 0.046 0.053 0.085 0.095 0.113s0.091 0.042 0.142 0.042h0.438v5.526h-0.226v-0.527c0-0.069-0.027-0.134-0.076-0.183s-0.114-0.076-0.183-0.076h-1.071v-1.491c0.181-0.005 0.353-0.080 0.479-0.21s0.197-0.303 0.197-0.484v-2.356c0-0.069-0.027-0.134-0.076-0.183s-0.114-0.076-0.183-0.076h-0.976c-0.069 0-0.134 0.027-0.183 0.076s-0.076 0.114-0.076 0.183v0.527h-0.527v-0.527c0-0.069-0.027-0.134-0.076-0.183s-0.114-0.076-0.183-0.076h-0.976c-0.069 0-0.134 0.027-0.183 0.076s-0.076 0.114-0.076 0.183v0.527h-0.527v-0.527c0-0.069-0.027-0.134-0.076-0.183s-0.114-0.076-0.183-0.076h-0.976c-0.069 0-0.134 0.027-0.183 0.076s-0.076 0.114-0.076 0.183v2.356c0 0.181 0.071 0.355 0.197 0.484s0.298 0.205 0.479 0.21v9.085c-0.323 0.014-0.627 0.151-0.851 0.384s-0.349 0.543-0.349 0.866v0.185c0 0.069 0.027 0.134 0.076 0.183s0.114 0.076 0.183 0.076h19.843c0.068 0 0.134-0.027 0.183-0.076s0.076-0.114 0.076-0.183v-0.185c-0-0.323-0.126-0.633-0.349-0.866s-0.529-0.37-0.851-0.384zM25.086 1.143l1.056 0.496-1.056 0.46v-0.955zM29.466 10.175v-2.097h0.459v0.527c0 0.069 0.027 0.134 0.076 0.183s0.114 0.076 0.183 0.076h1.044c0.069 0 0.134-0.027 0.183-0.076s0.076-0.114 0.076-0.183v-0.527h0.459v0.527c0 0.069 0.027 0.134 0.076 0.183s0.114 0.076 0.183 0.076h1.044c0.069 0 0.134-0.027 0.183-0.076s0.076-0.114 0.076-0.183v-0.527h0.459v2.097c0 0.047-0.019 0.092-0.052 0.126s-0.078 0.052-0.126 0.052h-4.145c-0.047-0-0.092-0.019-0.126-0.052s-0.052-0.078-0.052-0.126zM24.828 3.768l3.088 3.334h-4.166c-0.069 0-0.134 0.027-0.183 0.076s-0.076 0.114-0.076 0.183c0 0.069 0.027 0.134 0.076 0.183s0.114 0.076 0.183 0.076h3.802v5.526h-0.178v-0.527c0-0.069-0.027-0.134-0.076-0.183s-0.114-0.076-0.183-0.076h-1.611c-0.069 0-0.134 0.027-0.183 0.076s-0.076 0.114-0.076 0.183v0.527h-0.835v-0.527c0-0.069-0.027-0.134-0.076-0.183s-0.114-0.076-0.183-0.076h-1.611c-0.069 0-0.134 0.027-0.183 0.076s-0.076 0.114-0.076 0.183v0.527h-0.178v-5.526h0.699c0.069 0 0.134-0.027 0.183-0.076s0.076-0.114 0.076-0.183c0-0.069-0.027-0.134-0.076-0.183s-0.114-0.076-0.183-0.076h-1.062l3.088-3.334zM20.842 12.877v0.527c0 0.069 0.027 0.134 0.076 0.183s0.114 0.076 0.183 0.076h1.439c0.069 0 0.134-0.027 0.183-0.076s0.076-0.114 0.076-0.183v-0.527h1.094v0.527c0 0.069 0.027 0.134 0.076 0.183s0.114 0.076 0.183 0.076h1.353c0.069 0 0.134-0.027 0.183-0.076s0.076-0.114 0.076-0.183v-0.527h1.094v0.527c0 0.069 0.027 0.134 0.076 0.183s0.114 0.076 0.183 0.076h1.439c0.069 0 0.134-0.027 0.183-0.076s0.076-0.114 0.076-0.183v-0.527h1.009v1.356h-0.49c-0.069 0-0.134 0.027-0.183 0.076s-0.076 0.114-0.076 0.183c0 0.069 0.027 0.134 0.076 0.183s0.114 0.076 0.183 0.076h0.49v2.127c0 0.069 0.027 0.134 0.076 0.183s0.114 0.076 0.183 0.076c0.068 0 0.134-0.027 0.183-0.076s0.076-0.114 0.076-0.183v-1.123h0.665c0.069 0 0.134-0.027 0.183-0.076s0.076-0.114 0.076-0.183c0-0.069-0.027-0.134-0.076-0.183s-0.114-0.076-0.183-0.076h-0.665v-2.618c0-0.058-0.019-0.114-0.055-0.159s-0.085-0.078-0.141-0.092v-1.498h3.148v0.439h-0.684c-0.068 0-0.134 0.027-0.183 0.076s-0.076 0.114-0.076 0.183 0.027 0.134 0.076 0.183c0.048 0.049 0.114 0.076 0.183 0.076h0.684v7.425h-0.643c-0.069 0-0.134 0.027-0.183 0.076s-0.076 0.114-0.076 0.183c0 0.069 0.027 0.134 0.076 0.183s0.114 0.076 0.183 0.076h0.643v0.184h-2.952v-2.172c0-0.069-0.027-0.134-0.076-0.183s-0.114-0.076-0.183-0.076c-0.069 0-0.134 0.027-0.183 0.076s-0.076 0.114-0.076 0.183v0.947h-0.534c-0.068 0-0.134 0.027-0.183 0.076s-0.076 0.114-0.076 0.183c0 0.069 0.027 0.134 0.076 0.183s0.114 0.076 0.183 0.076h0.534v0.708h-3.274v-1.239h1.1c0.069 0 0.134-0.027 0.183-0.076s0.076-0.114 0.076-0.183c0-0.069-0.027-0.134-0.076-0.183s-0.114-0.076-0.183-0.076h-1.101c-0.009-0.247-0.080-0.488-0.205-0.701s-0.302-0.391-0.514-0.519l-0.866-0.517c-0.040-0.024-0.086-0.037-0.133-0.037s-0.093 0.013-0.133 0.037l-0.866 0.517c-0.22 0.132-0.401 0.318-0.528 0.541s-0.193 0.474-0.194 0.73v0.829h-0.704c-0.069 0-0.134 0.027-0.183 0.076s-0.076 0.114-0.076 0.183c0 0.069 0.027 0.134 0.076 0.183s0.114 0.076 0.183 0.076h0.704v0.359h-3.274v-1.581h0.491c0.069 0 0.134-0.027 0.183-0.076s0.076-0.114 0.076-0.183c0-0.069-0.027-0.134-0.076-0.183s-0.114-0.076-0.183-0.076h-0.491v-4.977h1.009zM26.031 18.247v1.705h-2.406v-1.705c0-0.167 0.044-0.33 0.126-0.475s0.2-0.266 0.343-0.352l0.734-0.438 0.734 0.438c0.143 0.086 0.261 0.207 0.343 0.352s0.126 0.309 0.126 0.475zM15.688 10.175v-2.097h0.459v0.527c0 0.069 0.027 0.134 0.076 0.183s0.114 0.076 0.183 0.076h1.044c0.069 0 0.134-0.027 0.183-0.076s0.076-0.114 0.076-0.183v-0.527h0.459v0.527c0 0.069 0.027 0.134 0.076 0.183s0.114 0.076 0.183 0.076h1.044c0.069 0 0.134-0.027 0.183-0.076s0.076-0.114 0.076-0.183v-0.527h0.459v2.097c-0 0.047-0.019 0.092-0.052 0.126s-0.078 0.052-0.126 0.052h-4.145c-0.047-0-0.092-0.019-0.126-0.052s-0.052-0.078-0.052-0.126zM18.826 15.797h0.491v2.256c-0.010 0.040-0.010 0.081 0 0.12v0.903h-0.665c-0.069 0-0.134 0.027-0.183 0.076s-0.076 0.114-0.076 0.183c0 0.069 0.027 0.134 0.076 0.183s0.114 0.076 0.183 0.076h0.665v0.359h-2.952v-6.119h0.682c0.069 0 0.134-0.027 0.183-0.076s0.076-0.114 0.076-0.183c0-0.069-0.027-0.134-0.076-0.183s-0.114-0.076-0.183-0.076h-0.682v-2.447h3.148v1.498c-0.056 0.014-0.106 0.046-0.141 0.092s-0.055 0.101-0.055 0.159v2.661h-0.491c-0.069 0-0.134 0.027-0.183 0.076s-0.076 0.114-0.076 0.183c0 0.069 0.027 0.134 0.076 0.183s0.114 0.076 0.183 0.076zM15.168 21.131c0.018-0.181 0.103-0.349 0.238-0.471s0.31-0.19 0.492-0.19h17.858c0.182 0 0.358 0.068 0.492 0.19s0.22 0.29 0.238 0.471h-19.319z"></path>
</symbol>
</defs>
</svg>
