<svg aria-hidden="true" style="position: absolute; width: 0; height: 0; overflow: hidden;" version="1.1" xmlns="http://www.w3.org/2000/svg" xmlns:xlink="http://www.w3.org/1999/xlink">
<defs>
<symbol id="icon-search" viewBox="0 0 32 32" fill="white">
<path d="M31.008 27.231l-7.58-6.447c-0.784-0.705-1.622-1.029-2.299-0.998 1.789-2.096 2.87-4.815 2.87-7.787 0-6.627-5.373-12-12-12s-12 5.373-12 12 5.373 12 12 12c2.972 0 5.691-1.081 7.787-2.87-0.031 0.677 0.293 1.515 0.998 2.299l6.447 7.58c1.104 1.226 2.907 1.33 4.007 0.23s0.997-2.903-0.23-4.007zM12 20c-4.418 0-8-3.582-8-8s3.582-8 8-8 8 3.582 8 8-3.582 8-8 8z"></path>
</symbol>
<symbol id="icon-bell" viewBox="0 0 28 28" fill="white">
<path d="M14.25 26.5c0-0.141-0.109-0.25-0.25-0.25-1.234 0-2.25-1.016-2.25-2.25 0-0.141-0.109-0.25-0.25-0.25s-0.25 0.109-0.25 0.25c0 1.516 1.234 2.75 2.75 2.75 0.141 0 0.25-0.109 0.25-0.25zM3.844 22h20.312c-2.797-3.156-4.156-7.438-4.156-13 0-2.016-1.906-5-6-5s-6 2.984-6 5c0 5.563-1.359 9.844-4.156 13zM27 22c0 1.094-0.906 2-2 2h-7c0 2.203-1.797 4-4 4s-4-1.797-4-4h-7c-1.094 0-2-0.906-2-2 2.312-1.953 5-5.453 5-13 0-3 2.484-6.281 6.625-6.891-0.078-0.187-0.125-0.391-0.125-0.609 0-0.828 0.672-1.5 1.5-1.5s1.5 0.672 1.5 1.5c0 0.219-0.047 0.422-0.125 0.609 4.141 0.609 6.625 3.891 6.625 6.891 0 7.547 2.688 11.047 5 13z"></path>
</symbol>
<symbol id="icon-body" viewBox="0 0 30 32">
<path fill="#fff" style="fill: var(--color1, #fff)" d="M21.096 20.303c0.928-0.488 1.99-0.765 3.122-0.765h0.004c0.115 0 0.169-0.135 0.084-0.21-1.177-1.032-2.52-1.866-3.977-2.468-0.015-0.008-0.031-0.011-0.046-0.019 2.381-1.691 3.931-4.44 3.931-7.541 0-5.138-4.249-9.3-9.491-9.3s-9.488 4.162-9.488 9.3c0 3.101 1.549 5.85 3.935 7.541-0.015 0.008-0.031 0.011-0.046 0.019-1.714 0.709-3.252 1.725-4.575 3.023-1.315 1.284-2.363 2.806-3.083 4.481-0.709 1.64-1.092 3.398-1.127 5.179-0.001 0.040 0.006 0.080 0.021 0.117s0.037 0.071 0.066 0.1 0.063 0.051 0.1 0.067c0.038 0.016 0.078 0.024 0.119 0.024h2.297c0.165 0 0.303-0.131 0.307-0.292 0.077-2.895 1.262-5.606 3.359-7.661 2.167-2.126 5.051-3.296 8.118-3.296 2.174 0 4.261 0.589 6.059 1.691 0.046 0.028 0.099 0.044 0.154 0.046s0.109-0.010 0.157-0.035v0zM14.726 15.75c-1.756 0-3.409-0.671-4.656-1.89-0.613-0.598-1.099-1.309-1.43-2.092s-0.501-1.622-0.499-2.468c0-1.721 0.686-3.341 1.929-4.56s2.895-1.89 4.656-1.89c1.76 0 3.409 0.671 4.656 1.89 0.613 0.598 1.099 1.309 1.43 2.092s0.5 1.622 0.499 2.468c0 1.721-0.687 3.341-1.929 4.56-1.246 1.219-2.899 1.89-4.656 1.89zM28.831 24.675h-3.221v-3.15c0-0.165-0.138-0.3-0.307-0.3h-2.148c-0.169 0-0.307 0.135-0.307 0.3v3.15h-3.221c-0.169 0-0.307 0.135-0.307 0.3v2.1c0 0.165 0.138 0.3 0.307 0.3h3.221v3.15c0 0.165 0.138 0.3 0.307 0.3h2.148c0.169 0 0.307-0.135 0.307-0.3v-3.15h3.221c0.169 0 0.307-0.135 0.307-0.3v-2.1c0-0.165-0.138-0.3-0.307-0.3z"></path>
</symbol>
<symbol id="icon-star" viewBox="0 0 32 32">
<path fill="#ffb800" style="fill: var(--color1, #ffb800)" d="M7.224 30.886c-0.772 0.396-1.648-0.298-1.492-1.184l1.66-9.46-7.046-6.712c-0.658-0.628-0.316-1.776 0.566-1.9l9.796-1.392 4.368-8.654c0.394-0.78 1.46-0.78 1.854 0l4.368 8.654 9.796 1.392c0.882 0.124 1.224 1.272 0.566 1.9l-7.046 6.712 1.66 9.46c0.156 0.886-0.72 1.58-1.492 1.184l-8.782-4.512-8.776 4.512z"></path>
</symbol>
<symbol id="icon-play" viewBox="0 0 25 32" >
<path  d="M23.631 18.477l-19.795 13.125c-1.68 1.113-3.836-0.235-3.836-2.478v-26.251c0-2.24 2.153-3.591 3.836-2.474l19.795 13.125c0.382 0.249 0.7 0.61 0.921 1.044s0.337 0.929 0.337 1.432-0.116 0.997-0.337 1.432c-0.221 0.435-0.539 0.795-0.921 1.044z"></path>
</symbol>
<symbol id="icon-arrow" viewBox="0 0 24 24" fill="white">
<path d="M5.859 4.125l2.156-2.109 9.984 9.984-9.984 9.984-2.156-2.109 7.922-7.875z"></path>
</symbol>
</defs>
</svg>